<svg version="1.1" xmlns="http://www.w3.org/2000/svg" xmlns:xlink="http://www.w3.org/1999/xlink" x="0px" y="0px" viewBox="0 0 50 50" style="enable-background:new 0 0 50 50;" xml:space="preserve">
<style type="text/css">
	.st0{fill:#38C6A4;}
	.st1{fill:#2D907C;}
	.st2{fill:#F1F1F1;}
	.st3{fill:#14152D;}
	.st4{clip-path:url(#SVGID_2_);fill:none;stroke:#989898;stroke-miterlimit:10;}
	.st5{clip-path:url(#SVGID_2_);}
	.st6{clip-path:url(#SVGID_4_);fill:none;stroke:#989898;stroke-miterlimit:10;}
	.st7{fill:#FFFFFF;}
	.st8{fill:none;stroke:#797979;stroke-miterlimit:10;}
	.st9{fill:#009DE2;}
	.st10{fill:#797979;}
	.st11{fill:#4D4D4D;}
	.st12{fill:none;stroke:#989898;stroke-width:0.5;stroke-miterlimit:10;}
	.st13{fill:none;stroke:#FFFFFF;stroke-miterlimit:10;}
	.st14{fill:none;stroke:#2D907C;stroke-miterlimit:10;}
	.st15{fill:#989898;}
	.st16{fill:none;stroke:#989898;stroke-miterlimit:10;}
	.st17{fill-rule:evenodd;clip-rule:evenodd;fill:#FFFFFF;}
	.st18{fill-rule:evenodd;clip-rule:evenodd;fill:#2D907C;}
	.st19{fill:none;stroke:#F1F1F1;stroke-miterlimit:10;}
	.st20{fill-rule:evenodd;clip-rule:evenodd;fill:#38C6A4;}
</style>
<g id="Home">
	<g>
		<defs>
			<rect id="SVGID_1_" x="79.67" y="-341.01" width="640" height="270"/>
		</defs>
		<clipPath id="SVGID_2_">
			<use xlink:href="#SVGID_1_" style="overflow:visible;"/>
		</clipPath>

	</g>
	<g>
		<path class="st1" d="M23.92,29.3c0.38,0.84,0.74,1.69,1.08,2.57c0.35-0.9,0.71-1.77,1.1-2.61c0.39-0.85,0.78-1.67,1.19-2.46    L38.71,4.31c0.2-0.39,0.41-0.69,0.63-0.9c0.21-0.21,0.45-0.37,0.72-0.47c0.26-0.1,0.57-0.15,0.9-0.15c0.34,0,0.73,0,1.17,0H50    v44.44h-9.1V21.64c0-1.24,0.06-2.58,0.18-4.03L29.3,40.48c-0.37,0.71-0.86,1.25-1.48,1.62c-0.62,0.37-1.33,0.55-2.12,0.55h-1.4    c-0.79,0-1.5-0.18-2.12-0.55c-0.62-0.37-1.11-0.91-1.48-1.62L8.85,17.58C8.93,18.3,8.99,19,9.04,19.7    c0.04,0.7,0.06,1.35,0.06,1.94v25.58H0V2.78h7.88c0.45,0,0.84,0,1.18,0c0.34,0,0.64,0.05,0.9,0.15c0.26,0.1,0.5,0.26,0.72,0.47    s0.42,0.51,0.63,0.9l11.45,22.58C23.15,27.66,23.54,28.47,23.92,29.3z"/>
	</g>
</g>




</svg>