<svg version="1.1" xmlns="http://www.w3.org/2000/svg" xmlns:xlink="http://www.w3.org/1999/xlink" x="0px" y="0px" viewBox="0 0 22.06 22.06" style="enable-background:new 0 0 22.06 22.06;" xml:space="preserve">
<style type="text/css">
	.st0{fill:#38C6A4;}
	.st1{fill:#2D907C;}
	.st2{fill:#F1F1F1;}
	.st3{fill:#14152D;}
	.st4{clip-path:url(#SVGID_2_);fill:none;stroke:#989898;stroke-miterlimit:10;}
	.st5{clip-path:url(#SVGID_2_);}
	.st6{clip-path:url(#SVGID_4_);fill:none;stroke:#989898;stroke-miterlimit:10;}
	.st7{fill:#FFFFFF;}
	.st8{fill:none;stroke:#797979;stroke-miterlimit:10;}
	.st9{fill:#009DE2;}
	.st10{fill:#797979;}
	.st11{fill:#4D4D4D;}
	.st12{fill:none;stroke:#989898;stroke-width:0.5;stroke-miterlimit:10;}
	.st13{fill:none;stroke:#FFFFFF;stroke-miterlimit:10;}
	.st14{fill:none;stroke:#2D907C;stroke-miterlimit:10;}
	.st15{fill:#989898;}
	.st16{fill:none;stroke:#989898;stroke-miterlimit:10;}
	.st17{fill-rule:evenodd;clip-rule:evenodd;fill:#FFFFFF;}
	.st18{fill-rule:evenodd;clip-rule:evenodd;fill:#2D907C;}
	.st19{fill:none;stroke:#F1F1F1;stroke-miterlimit:10;}
	.st20{fill-rule:evenodd;clip-rule:evenodd;fill:#38C6A4;}
</style>
<g id="Home">

	<g>
		<g>
			<path class="st1" d="M19.95,17.52c1.37-1.88,2.11-4.13,2.11-6.49C22.06,4.93,17.13,0,11.03,0C4.93,0,0,4.93,0,11.03     c0,2.35,0.74,4.61,2.11,6.48C6.51,11.46,15.55,11.46,19.95,17.52z M7.15,6.51c0-2.14,1.74-3.88,3.88-3.88s3.88,1.74,3.88,3.88     V7.8c0,2.14-1.74,3.88-3.88,3.88S7.15,9.94,7.15,7.8V6.51z"/>
			<path class="st1" d="M11.03,10.38c1.43,0,2.59-1.16,2.59-2.59V6.51c0-1.43-1.16-2.59-2.59-2.59S8.45,5.08,8.45,6.51V7.8     C8.45,9.22,9.61,10.38,11.03,10.38z"/>
			<path class="st1" d="M2.96,18.55c4.36,4.68,11.77,4.68,16.14,0C15.25,12.83,6.83,12.85,2.96,18.55z"/>
		</g>
	</g>
</g>




</svg>