<svg version="1.1" xmlns="http://www.w3.org/2000/svg" xmlns:xlink="http://www.w3.org/1999/xlink" x="0px" y="0px" viewBox="0 0 229.49 30.9" style="enable-background:new 0 0 229.49 30.9;" xml:space="preserve">
<style type="text/css">
	.st0{fill:#38C6A4;}
	.st1{fill:#2D907C;}
	.st2{fill:#F1F1F1;}
	.st3{fill:#14152D;}
	.st4{clip-path:url(#SVGID_2_);fill:none;stroke:#989898;stroke-miterlimit:10;}
	.st5{clip-path:url(#SVGID_2_);}
	.st6{clip-path:url(#SVGID_4_);fill:none;stroke:#989898;stroke-miterlimit:10;}
	.st7{fill:#FFFFFF;}
	.st8{fill:none;stroke:#797979;stroke-miterlimit:10;}
	.st9{fill:#009DE2;}
	.st10{fill:#797979;}
	.st11{fill:#4D4D4D;}
	.st12{fill:none;stroke:#989898;stroke-width:0.5;stroke-miterlimit:10;}
	.st13{fill:none;stroke:#FFFFFF;stroke-miterlimit:10;}
	.st14{fill:none;stroke:#2D907C;stroke-miterlimit:10;}
	.st15{fill:#989898;}
	.st16{fill:none;stroke:#989898;stroke-miterlimit:10;}
	.st17{fill-rule:evenodd;clip-rule:evenodd;fill:#FFFFFF;}
	.st18{fill-rule:evenodd;clip-rule:evenodd;fill:#2D907C;}
	.st19{fill:none;stroke:#F1F1F1;stroke-miterlimit:10;}
	.st20{fill-rule:evenodd;clip-rule:evenodd;fill:#38C6A4;}
</style>
<g id="Home">

	<g>
		<path class="st1" d="M13.26,15.4c0.21,0.46,0.41,0.94,0.6,1.42c0.19-0.5,0.39-0.98,0.61-1.45c0.21-0.47,0.43-0.92,0.66-1.36    l6.33-12.47c0.11-0.21,0.23-0.38,0.35-0.5c0.12-0.12,0.25-0.21,0.4-0.26c0.15-0.06,0.31-0.08,0.5-0.08s0.4,0,0.65,0h4.37v24.64    h-5.04V11.15c0-0.69,0.03-1.43,0.1-2.23l-6.53,12.67c-0.2,0.4-0.48,0.69-0.82,0.9c-0.34,0.2-0.74,0.3-1.18,0.3h-0.78    c-0.44,0-0.83-0.1-1.18-0.3c-0.34-0.2-0.62-0.5-0.82-0.9L4.91,8.9c0.04,0.4,0.08,0.79,0.1,1.18c0.02,0.39,0.03,0.75,0.03,1.07    v14.18H0V0.69h4.37c0.25,0,0.47,0,0.65,0c0.19,0,0.35,0.03,0.5,0.08c0.15,0.06,0.28,0.14,0.4,0.26s0.23,0.29,0.35,0.5l6.35,12.52    C12.83,14.49,13.05,14.93,13.26,15.4z"/>
		<path class="st1" d="M39.29,7.51c1.16,0,2.23,0.18,3.19,0.54c0.96,0.36,1.79,0.89,2.49,1.57c0.69,0.69,1.24,1.53,1.62,2.53    c0.39,1,0.58,2.13,0.58,3.39c0,0.4-0.02,0.72-0.05,0.96c-0.03,0.25-0.1,0.45-0.19,0.59c-0.09,0.15-0.21,0.25-0.36,0.3    c-0.15,0.06-0.35,0.08-0.58,0.08H35.87c0.17,1.47,0.61,2.53,1.34,3.19c0.72,0.66,1.65,0.99,2.79,0.99c0.61,0,1.13-0.07,1.57-0.22    c0.44-0.15,0.83-0.31,1.18-0.49c0.34-0.18,0.66-0.34,0.95-0.49c0.29-0.15,0.59-0.22,0.91-0.22c0.42,0,0.73,0.15,0.95,0.46    l1.52,1.88c-0.54,0.62-1.13,1.13-1.75,1.51c-0.63,0.39-1.27,0.69-1.93,0.91s-1.32,0.37-1.98,0.46c-0.66,0.08-1.29,0.13-1.89,0.13    c-1.23,0-2.38-0.2-3.46-0.6c-1.08-0.4-2.02-1-2.83-1.79c-0.81-0.79-1.44-1.77-1.91-2.94c-0.47-1.17-0.7-2.54-0.7-4.1    c0-1.17,0.2-2.28,0.6-3.33c0.4-1.05,0.98-1.97,1.73-2.76c0.75-0.79,1.66-1.42,2.72-1.88C36.75,7.74,37.95,7.51,39.29,7.51z     M39.39,11.13c-1,0-1.79,0.29-2.35,0.85c-0.56,0.57-0.94,1.39-1.12,2.46h6.55c0-0.42-0.05-0.82-0.16-1.22    c-0.11-0.39-0.28-0.75-0.52-1.06c-0.24-0.31-0.56-0.56-0.96-0.75C40.44,11.23,39.96,11.13,39.39,11.13z"/>
		<path class="st1" d="M50.19,25.33V7.78h3.11c0.26,0,0.48,0.02,0.65,0.07c0.17,0.05,0.32,0.12,0.44,0.21    c0.12,0.1,0.21,0.22,0.27,0.38c0.06,0.16,0.12,0.35,0.16,0.58l0.29,1.64c0.64-0.99,1.36-1.78,2.17-2.35    c0.8-0.58,1.68-0.86,2.62-0.86c0.8,0,1.44,0.19,1.93,0.58l-0.68,3.86c-0.05,0.24-0.14,0.4-0.27,0.5c-0.14,0.1-0.32,0.14-0.54,0.14    c-0.19,0-0.42-0.03-0.68-0.08s-0.59-0.08-0.98-0.08c-1.38,0-2.46,0.73-3.25,2.2v10.76H50.19z"/>
		<path class="st1" d="M76.82,11.95c-0.16,0.19-0.31,0.34-0.46,0.46c-0.15,0.11-0.36,0.17-0.63,0.17c-0.26,0-0.49-0.06-0.7-0.19    c-0.21-0.12-0.44-0.26-0.7-0.41c-0.26-0.15-0.56-0.29-0.91-0.41c-0.35-0.12-0.78-0.19-1.3-0.19c-0.64,0-1.2,0.12-1.67,0.36    c-0.47,0.24-0.85,0.58-1.16,1.02c-0.3,0.44-0.53,0.98-0.68,1.62c-0.15,0.64-0.22,1.36-0.22,2.16c0,1.68,0.32,2.97,0.97,3.88    c0.65,0.9,1.54,1.35,2.68,1.35c0.61,0,1.09-0.08,1.45-0.23c0.36-0.15,0.66-0.32,0.91-0.51c0.25-0.19,0.48-0.36,0.69-0.52    c0.21-0.16,0.47-0.24,0.79-0.24c0.42,0,0.73,0.15,0.95,0.46l1.52,1.88c-0.54,0.62-1.11,1.13-1.71,1.51    c-0.6,0.39-1.21,0.69-1.84,0.91c-0.63,0.22-1.25,0.37-1.89,0.46c-0.63,0.08-1.25,0.13-1.84,0.13c-1.07,0-2.1-0.2-3.07-0.61    c-0.98-0.41-1.83-1-2.57-1.77c-0.74-0.77-1.33-1.72-1.76-2.85c-0.43-1.13-0.65-2.41-0.65-3.86c0-1.26,0.19-2.45,0.57-3.55    c0.38-1.1,0.94-2.05,1.68-2.86C66,9.3,66.91,8.67,68,8.21c1.09-0.46,2.35-0.69,3.78-0.69c1.38,0,2.58,0.22,3.62,0.66    c1.04,0.44,1.97,1.08,2.81,1.93L76.82,11.95z"/>
		<path class="st1" d="M92.73,25.33c-0.5,0-0.87-0.07-1.13-0.2c-0.25-0.14-0.47-0.42-0.63-0.85l-0.37-0.96    c-0.44,0.37-0.86,0.7-1.27,0.98c-0.41,0.28-0.83,0.52-1.26,0.72c-0.43,0.2-0.9,0.34-1.39,0.44c-0.49,0.1-1.04,0.14-1.63,0.14    c-0.8,0-1.53-0.1-2.18-0.31c-0.65-0.21-1.21-0.52-1.67-0.93s-0.81-0.91-1.06-1.52c-0.25-0.61-0.37-1.3-0.37-2.1    c0-0.62,0.16-1.26,0.47-1.92c0.32-0.66,0.86-1.25,1.64-1.79c0.78-0.54,1.83-0.99,3.15-1.35c1.32-0.36,2.98-0.54,4.99-0.54v-0.75    c0-1.04-0.21-1.78-0.63-2.25c-0.42-0.46-1.02-0.69-1.8-0.69c-0.62,0-1.13,0.07-1.52,0.2c-0.4,0.14-0.75,0.29-1.06,0.46    c-0.31,0.17-0.61,0.32-0.91,0.46c-0.29,0.14-0.64,0.2-1.05,0.2c-0.36,0-0.67-0.09-0.92-0.26c-0.25-0.17-0.45-0.39-0.6-0.65    l-0.95-1.64c1.06-0.94,2.24-1.63,3.53-2.09c1.29-0.46,2.68-0.69,4.15-0.69c1.06,0,2.02,0.17,2.87,0.52    c0.85,0.34,1.57,0.82,2.17,1.44c0.59,0.61,1.05,1.35,1.36,2.19c0.32,0.85,0.47,1.77,0.47,2.78v10.97H92.73z M86.71,22.13    c0.68,0,1.27-0.12,1.78-0.36c0.51-0.24,1.02-0.62,1.54-1.15v-2.4c-1.05,0-1.91,0.07-2.59,0.2c-0.68,0.14-1.21,0.31-1.61,0.51    c-0.4,0.2-0.67,0.44-0.82,0.7s-0.23,0.55-0.23,0.85c0,0.6,0.16,1.03,0.49,1.27C85.59,22.01,86.07,22.13,86.71,22.13z"/>
		<path class="st1" d="M111.17,25.33c-0.33,0-0.6-0.07-0.82-0.22c-0.22-0.15-0.38-0.37-0.47-0.66l-0.41-1.34    c-0.35,0.37-0.72,0.71-1.1,1.02c-0.38,0.3-0.8,0.57-1.24,0.79c-0.45,0.22-0.93,0.39-1.44,0.51c-0.51,0.12-1.07,0.18-1.67,0.18    c-0.91,0-1.76-0.2-2.54-0.61c-0.78-0.41-1.45-0.99-2.01-1.76c-0.56-0.77-1.01-1.71-1.33-2.82c-0.32-1.11-0.48-2.38-0.48-3.8    c0-1.31,0.18-2.52,0.54-3.65c0.36-1.12,0.87-2.09,1.53-2.91c0.66-0.82,1.45-1.46,2.38-1.92c0.93-0.46,1.95-0.69,3.06-0.69    c0.9,0,1.67,0.13,2.29,0.4c0.63,0.27,1.19,0.61,1.7,1.04V0h5.25v25.33H111.17z M105.86,21.58c0.38,0,0.73-0.04,1.04-0.11    c0.31-0.07,0.59-0.18,0.85-0.31s0.5-0.3,0.74-0.51c0.23-0.2,0.46-0.44,0.69-0.71v-7.45c-0.41-0.44-0.84-0.75-1.29-0.92    c-0.46-0.17-0.94-0.26-1.45-0.26c-0.49,0-0.93,0.1-1.34,0.29c-0.41,0.19-0.76,0.5-1.06,0.92c-0.3,0.42-0.53,0.97-0.7,1.65    s-0.25,1.49-0.25,2.45c0,0.93,0.07,1.7,0.2,2.34c0.14,0.63,0.32,1.14,0.57,1.53c0.24,0.39,0.53,0.67,0.87,0.84    C105.07,21.49,105.44,21.58,105.86,21.58z"/>
		<path class="st1" d="M126.3,7.51c1.33,0,2.54,0.21,3.64,0.63c1.09,0.42,2.03,1.02,2.82,1.79c0.78,0.78,1.39,1.72,1.83,2.83    c0.43,1.11,0.65,2.36,0.65,3.75c0,1.4-0.22,2.66-0.65,3.78c-0.43,1.12-1.04,2.08-1.83,2.86c-0.78,0.78-1.72,1.39-2.82,1.81    c-1.09,0.42-2.31,0.63-3.64,0.63c-1.34,0-2.56-0.21-3.66-0.63c-1.1-0.42-2.05-1.03-2.84-1.81c-0.8-0.78-1.41-1.74-1.84-2.86    c-0.43-1.12-0.65-2.38-0.65-3.78c0-1.39,0.22-2.64,0.65-3.75c0.43-1.11,1.05-2.06,1.84-2.83c0.8-0.78,1.74-1.38,2.84-1.79    C123.74,7.72,124.96,7.51,126.3,7.51z M126.3,21.71c1.21,0,2.1-0.43,2.67-1.28c0.57-0.85,0.85-2.15,0.85-3.88    c0-1.74-0.28-3.03-0.85-3.88c-0.57-0.85-1.46-1.27-2.67-1.27c-1.24,0-2.15,0.42-2.72,1.27c-0.58,0.85-0.86,2.14-0.86,3.88    c0,1.74,0.29,3.03,0.86,3.88C124.15,21.28,125.06,21.71,126.3,21.71z"/>
		<path class="st1" d="M150.36,17.09v8.24h-5.72V0.68h8.7c1.74,0,3.23,0.21,4.48,0.62c1.25,0.41,2.27,0.98,3.08,1.7    c0.81,0.72,1.4,1.57,1.79,2.56s0.58,2.04,0.58,3.18c0,1.23-0.2,2.36-0.59,3.38c-0.4,1.03-1,1.91-1.81,2.64    c-0.81,0.73-1.84,1.31-3.09,1.72c-1.25,0.41-2.72,0.62-4.43,0.62H150.36z M150.36,12.78h2.98c1.49,0,2.56-0.36,3.22-1.07    c0.65-0.71,0.98-1.7,0.98-2.98c0-0.56-0.08-1.08-0.25-1.54c-0.17-0.46-0.43-0.86-0.77-1.19c-0.34-0.33-0.78-0.59-1.3-0.77    c-0.52-0.18-1.15-0.27-1.87-0.27h-2.98V12.78z"/>
		<path class="st1" d="M173.41,29.88c-0.16,0.35-0.35,0.61-0.58,0.77c-0.23,0.16-0.59,0.25-1.08,0.25h-3.93l3.38-7.11L164.2,7.78    h4.64c0.41,0,0.72,0.09,0.95,0.27c0.23,0.18,0.38,0.4,0.47,0.64l2.88,7.56c0.27,0.7,0.49,1.4,0.66,2.1    c0.11-0.36,0.24-0.72,0.37-1.07c0.14-0.35,0.26-0.7,0.39-1.07l2.61-7.53c0.09-0.26,0.27-0.48,0.53-0.65    c0.26-0.17,0.55-0.26,0.85-0.26h4.23L173.41,29.88z"/>
		<path class="st1" d="M184.95,25.33V7.78h3.25c0.33,0,0.6,0.07,0.82,0.22c0.22,0.15,0.38,0.37,0.47,0.66l0.29,0.95    c0.29-0.3,0.6-0.58,0.91-0.84c0.32-0.25,0.66-0.47,1.02-0.66c0.37-0.19,0.76-0.33,1.18-0.44c0.42-0.11,0.89-0.16,1.4-0.16    c1.06,0,1.94,0.27,2.63,0.82c0.69,0.55,1.22,1.28,1.58,2.19c0.29-0.54,0.65-1,1.07-1.39c0.42-0.38,0.88-0.69,1.37-0.93    c0.49-0.24,1.01-0.41,1.56-0.52c0.55-0.11,1.09-0.17,1.63-0.17c1,0,1.9,0.15,2.67,0.45c0.78,0.3,1.43,0.73,1.95,1.3    c0.52,0.57,0.92,1.27,1.19,2.1c0.27,0.83,0.41,1.77,0.41,2.82v11.15h-5.25V14.18c0-1.82-0.78-2.72-2.34-2.72    c-0.71,0-1.3,0.23-1.77,0.7c-0.47,0.47-0.7,1.14-0.7,2.02v11.15h-5.25V14.18c0-1-0.2-1.71-0.59-2.12    c-0.4-0.41-0.98-0.61-1.74-0.61c-0.47,0-0.92,0.11-1.35,0.32c-0.42,0.21-0.82,0.5-1.19,0.86v12.69H184.95z"/>
		<path class="st1" d="M221.6,7.51c1.16,0,2.23,0.18,3.19,0.54c0.96,0.36,1.79,0.89,2.49,1.57c0.69,0.69,1.24,1.53,1.62,2.53    c0.39,1,0.58,2.13,0.58,3.39c0,0.4-0.02,0.72-0.05,0.96c-0.03,0.25-0.1,0.45-0.19,0.59c-0.09,0.15-0.21,0.25-0.36,0.3    c-0.15,0.06-0.35,0.08-0.58,0.08h-10.12c0.17,1.47,0.61,2.53,1.34,3.19c0.72,0.66,1.65,0.99,2.79,0.99c0.61,0,1.13-0.07,1.57-0.22    c0.44-0.15,0.83-0.31,1.18-0.49c0.34-0.18,0.66-0.34,0.95-0.49c0.29-0.15,0.59-0.22,0.91-0.22c0.42,0,0.73,0.15,0.95,0.46    l1.52,1.88c-0.54,0.62-1.13,1.13-1.75,1.51c-0.63,0.39-1.27,0.69-1.93,0.91s-1.32,0.37-1.98,0.46c-0.66,0.08-1.29,0.13-1.89,0.13    c-1.23,0-2.38-0.2-3.46-0.6c-1.08-0.4-2.02-1-2.83-1.79c-0.81-0.79-1.44-1.77-1.91-2.94c-0.47-1.17-0.7-2.54-0.7-4.1    c0-1.17,0.2-2.28,0.6-3.33c0.4-1.05,0.98-1.97,1.73-2.76c0.75-0.79,1.66-1.42,2.72-1.88C219.06,7.74,220.26,7.51,221.6,7.51z     M221.7,11.13c-1,0-1.79,0.29-2.35,0.85c-0.56,0.57-0.94,1.39-1.12,2.46h6.55c0-0.42-0.05-0.82-0.16-1.22    c-0.11-0.39-0.28-0.75-0.52-1.06c-0.24-0.31-0.56-0.56-0.96-0.75C222.75,11.23,222.27,11.13,221.7,11.13z"/>
	</g>
</g>




</svg>