<svg version="1.1" xmlns="http://www.w3.org/2000/svg" xmlns:xlink="http://www.w3.org/1999/xlink" x="0px" y="0px" viewBox="0 0 24.5 24.5" style="enable-background:new 0 0 24.5 24.5;" xml:space="preserve">
<style type="text/css">
	.st0{fill:#38C6A4;}
	.st1{fill:#2D907C;}
	.st2{fill:#F1F1F1;}
	.st3{fill:#14152D;}
	.st4{clip-path:url(#SVGID_2_);fill:none;stroke:#989898;stroke-miterlimit:10;}
	.st5{clip-path:url(#SVGID_2_);}
	.st6{clip-path:url(#SVGID_4_);fill:none;stroke:#989898;stroke-miterlimit:10;}
	.st7{fill:#FFFFFF;}
	.st8{fill:none;stroke:#797979;stroke-miterlimit:10;}
	.st9{fill:#009DE2;}
	.st10{fill:#797979;}
	.st11{fill:#4D4D4D;}
	.st12{fill:none;stroke:#989898;stroke-width:0.5;stroke-miterlimit:10;}
	.st13{fill:none;stroke:#FFFFFF;stroke-miterlimit:10;}
	.st14{fill:none;stroke:#2D907C;stroke-miterlimit:10;}
	.st15{fill:#989898;}
	.st16{fill:none;stroke:#989898;stroke-miterlimit:10;}
	.st17{fill-rule:evenodd;clip-rule:evenodd;fill:#FFFFFF;}
	.st18{fill-rule:evenodd;clip-rule:evenodd;fill:#2D907C;}
	.st19{fill:none;stroke:#F1F1F1;stroke-miterlimit:10;}
	.st20{fill-rule:evenodd;clip-rule:evenodd;fill:#38C6A4;}
</style>
<g id="Home">

	<g>
		<path class="st18" d="M12.25,0C5.5,0,0,5.5,0,12.25c0,2.38,0.67,4.66,1.96,6.64l-1.86,4.1c-0.17,0.38-0.11,0.82,0.16,1.14    c0.21,0.24,0.51,0.38,0.81,0.38c0.09,0,0.19-0.01,0.28-0.04l5.13-1.41c1.77,0.95,3.76,1.44,5.77,1.44C19,24.5,24.5,19,24.5,12.25    C24.5,5.5,19,0,12.25,0z M12.25,22.36c-1.79,0-3.55-0.48-5.09-1.38c-0.17-0.1-0.35-0.15-0.54-0.15c-0.09,0-0.19,0.01-0.28,0.04    L2.99,21.8l1.17-2.57c0.16-0.35,0.12-0.76-0.11-1.07c-1.25-1.73-1.91-3.77-1.91-5.91c0-5.57,4.54-10.11,10.11-10.11    c5.58,0,10.11,4.54,10.11,10.11C22.36,17.82,17.83,22.36,12.25,22.36z"/>
		<path class="st18" d="M16.96,14.08c-0.51-0.31-1.18-0.65-1.78-0.4c-0.46,0.19-0.76,0.92-1.06,1.29c-0.15,0.19-0.34,0.22-0.58,0.12    c-1.74-0.69-3.07-1.86-4.03-3.46c-0.16-0.25-0.13-0.45,0.06-0.68c0.29-0.34,0.65-0.73,0.73-1.19c0.08-0.46-0.14-1-0.33-1.41    C9.73,7.84,9.46,7.09,8.93,6.8C8.45,6.52,7.82,6.68,7.39,7.03c-0.74,0.6-1.1,1.55-1.09,2.49c0,0.27,0.04,0.53,0.1,0.79    c0.15,0.62,0.44,1.2,0.76,1.75c0.24,0.41,0.51,0.82,0.79,1.2c0.93,1.26,2.09,2.36,3.43,3.18c0.67,0.41,1.39,0.77,2.14,1.02    c0.84,0.28,1.58,0.57,2.49,0.39c0.95-0.18,1.88-0.77,2.26-1.68c0.11-0.27,0.17-0.57,0.1-0.86C18.24,14.72,17.44,14.37,16.96,14.08    z"/>
	</g>
</g>




</svg>