<?xml version="1.0" encoding="utf-8"?>
<!-- Generator: Adobe Illustrator 24.0.0, SVG Export Plug-In . SVG Version: 6.00 Build 0)  -->
<svg version="1.1" xmlns="http://www.w3.org/2000/svg" xmlns:xlink="http://www.w3.org/1999/xlink" x="0px" y="0px"
	 viewBox="0 0 62.82 62.82" style="enable-background:new 0 0 62.82 62.82;" xml:space="preserve">
<style type="text/css">
	.st0{fill-rule:evenodd;clip-rule:evenodd;fill:#38C2A0;}
	.st1{clip-path:url(#SVGID_2_);}
	.st2{fill:#35383B;}
	.st3{fill:#FFFFFF;}
	.st4{fill:#BC3D1D;}
	.st5{fill-rule:evenodd;clip-rule:evenodd;fill:#EDEDED;}
	.st6{fill-rule:evenodd;clip-rule:evenodd;fill:#FFFFFF;}
	.st7{fill-rule:evenodd;clip-rule:evenodd;fill:#35383B;}
	.st8{fill:none;stroke:#949494;stroke-width:0.5;stroke-miterlimit:10;}
	.st9{fill:#2D8C7C;}
	.st10{fill:none;stroke:#FFFFFF;stroke-width:0.5;stroke-miterlimit:10;}
	.st11{fill:#EEEEEE;}
	.st12{fill:#E4E4E4;}
	.st13{fill:#EDEDED;}
	.st14{fill:none;stroke:#606060;stroke-width:0.5;stroke-miterlimit:10;}
	.st15{fill:#38C2A0;}
	.st16{fill:#4D4D4D;}
	.st17{fill:none;stroke:#38C2A0;stroke-width:0.5;stroke-miterlimit:10;}
	.st18{fill:#606060;}
	.st19{fill:none;stroke:#FFFFFF;stroke-miterlimit:10;}
	.st20{clip-path:url(#SVGID_4_);}
	.st21{fill:none;stroke:#EDEDED;stroke-width:7;stroke-miterlimit:10;}
	.st22{fill:none;stroke:#2D8C7C;stroke-width:7;stroke-miterlimit:10;}
	.st23{clip-path:url(#SVGID_12_);}
	.st24{clip-path:url(#SVGID_16_);}
	.st25{fill:#A2F2D9;}
	.st26{fill:#949494;}
	.st27{fill:#38C3A1;}
	.st28{display:none;}
	.st29{display:inline;}
	.st30{display:inline;fill:#38C2A0;}
	.st31{clip-path:url(#SVGID_22_);}
	.st32{clip-path:url(#SVGID_22_);fill:none;}
	.st33{clip-path:url(#SVGID_26_);fill:#38C2A0;}
	.st34{clip-path:url(#SVGID_28_);fill:#38C2A0;}
	.st35{clip-path:url(#SVGID_30_);fill:#38C2A0;}
	.st36{clip-path:url(#SVGID_32_);fill:#38C2A0;}
	.st37{clip-path:url(#SVGID_34_);fill:#38C2A0;}
	.st38{clip-path:url(#SVGID_36_);fill:#38C2A0;}
	.st39{clip-path:url(#SVGID_38_);fill:#38C2A0;}
	.st40{fill:none;}
	.st41{fill:#606060;stroke:#949494;stroke-width:0.5;stroke-miterlimit:10;}
	.st42{fill:#797979;}
	.st43{fill-rule:evenodd;clip-rule:evenodd;fill:#2D8C7C;}
	.st44{fill:none;stroke:#EDEDED;stroke-miterlimit:10;}
	.st45{fill:#808080;}
	.st46{fill:#1A1A1A;}
</style>
<g id="Contacto">
</g>
<g id="Blog">
</g>
<g id="Zona_Pyme">
</g>
<g id="Nosotros">
	<g>
		<g class="st28">
			<g class="st29">
				<path class="st15" d="M39.05,22.69v-3.31c-0.02-4.21-3.45-7.62-7.67-7.6c-4.19,0.02-7.58,3.41-7.6,7.6v3.31
					c0.02,4.21,3.45,7.62,7.67,7.6C35.64,30.27,39.03,26.88,39.05,22.69z M25.8,22.69v-3.31c0.02-3.1,2.55-5.61,5.65-5.59
					c3.08,0.02,5.57,2.51,5.59,5.59v3.31c-0.02,3.1-2.55,5.61-5.65,5.59C28.31,28.27,25.82,25.77,25.8,22.69z"/>
				<path class="st15" d="M19.12,51.03h24.6c0.56,0,1.01-0.45,1.01-1.01l0,0v-2.31h16.84c0.56,0,1.01-0.45,1.01-1.01v-6.53
					c0-3.97-3.09-7.26-7.06-7.52c-0.54-0.04-0.81,0.3-1.04,0.57c-1.61,1.97-4.52,2.26-6.49,0.65c-0.3-0.24-0.56-0.52-0.79-0.83
					c-0.19-0.26-0.51-0.42-0.83-0.41c-1.31,0.03-2.58,0.4-3.7,1.08c-1.49-1.73-3.62-2.79-5.9-2.93c-0.52-0.02-0.78,0.29-1.04,0.6
					c-1.89,2.31-5.3,2.66-7.62,0.76c-0.35-0.28-0.66-0.61-0.92-0.97c-0.19-0.26-0.51-0.42-0.83-0.41c-2.2,0.05-4.3,0.97-5.84,2.55
					c-0.13,0.13-0.25,0.26-0.36,0.4c-1.04-0.63-2.21-1-3.43-1.08c-0.53-0.04-0.81,0.3-1.04,0.57c-1.61,1.97-4.52,2.26-6.49,0.65
					c-0.3-0.24-0.56-0.52-0.79-0.83c-0.2-0.26-0.51-0.42-0.83-0.41c-4.08,0.1-7.34,3.44-7.34,7.53v6.53c0,0.56,0.45,1.01,1.01,1.01
					h16.87v2.31C18.11,50.58,18.56,51.03,19.12,51.03z M45.94,34.7c2.42,2.75,6.61,3.01,9.35,0.59c0.2-0.18,0.39-0.37,0.57-0.57
					c2.7,0.41,4.7,2.73,4.7,5.46v5.52H44.73v-6.45c0-1.34-0.32-2.66-0.93-3.85C44.46,35.03,45.19,34.78,45.94,34.7L45.94,34.7z
					 M25.93,32.84c2.68,3.1,7.37,3.45,10.47,0.77c0.26-0.23,0.51-0.48,0.74-0.74c3.19,0.44,5.57,3.17,5.57,6.39v9.76H20.13v-9.76
					C20.15,35.95,22.64,33.19,25.93,32.84z M2.25,45.71v-5.52c0.02-2.8,2.12-5.15,4.9-5.49c2.42,2.75,6.61,3.01,9.35,0.59
					c0.2-0.18,0.39-0.37,0.57-0.56c0.69,0.1,1.36,0.34,1.96,0.69c-0.61,1.19-0.92,2.5-0.92,3.84v6.45L2.25,45.71z"/>
				<path class="st15" d="M57.61,25.69v-2.9c0-3.76-3.05-6.81-6.81-6.81S44,19.03,44,22.79v2.9c0,3.76,3.05,6.81,6.81,6.81
					S57.61,29.45,57.61,25.69z M46.01,25.69v-2.9c0-2.65,2.15-4.8,4.79-4.8c2.65,0,4.8,2.15,4.8,4.79c0,0,0,0,0,0v2.9
					c0,2.65-2.15,4.8-4.79,4.8S46.01,28.34,46.01,25.69C46.01,25.69,46.01,25.69,46.01,25.69z"/>
				<path class="st15" d="M18.82,25.69v-2.9c0-3.76-3.05-6.81-6.81-6.81s-6.81,3.05-6.81,6.81v2.9c0,3.76,3.05,6.81,6.81,6.81
					S18.82,29.45,18.82,25.69z M7.22,25.69v-2.9c0-2.65,2.15-4.8,4.79-4.8c2.65,0,4.8,2.15,4.8,4.79c0,0,0,0,0,0v2.9
					c0,2.65-2.15,4.8-4.79,4.8S7.22,28.34,7.22,25.69C7.22,25.69,7.22,25.69,7.22,25.69z"/>
			</g>
		</g>
		<g class="st28">
			<g class="st29">
				<path id="XMLID_8_" class="st15" d="M61.4,9.71l0.82-0.82c0.48-0.48,0.48-1.25,0-1.72c-0.48-0.48-1.25-0.48-1.72,0l-0.82,0.82
					l-0.82-0.82C58.63,6.94,58.32,6.81,58,6.81h-1.34L50.44,0.6c-0.23-0.23-0.54-0.36-0.86-0.36H4.62c-2.42,0-4.38,1.97-4.38,4.38
					v22.82c0,2.42,1.97,4.38,4.38,4.38h10.61L8.1,38.96c-0.83,0.83-1.28,1.93-1.28,3.1c0,1.17,0.46,2.27,1.28,3.1l16.13,16.13
					c0.83,0.83,1.93,1.28,3.1,1.28c1.17,0,2.27-0.46,3.1-1.28l12.08-12.08c0.48-0.48,0.48-1.25,0-1.72c-0.48-0.48-1.25-0.48-1.72,0
					L28.71,59.57c-0.37,0.37-0.86,0.57-1.38,0.57c-0.52,0-1.01-0.2-1.38-0.57L9.82,43.44c-0.37-0.37-0.57-0.86-0.57-1.38
					c0-0.52,0.2-1.01,0.57-1.38L41.25,9.25h16.24l0.46,0.46l-2.82,2.82c-0.48-0.23-1.01-0.36-1.57-0.36c-2.01,0-3.65,1.64-3.65,3.65
					s1.64,3.65,3.65,3.65s3.65-1.64,3.65-3.65c0-0.56-0.13-1.1-0.36-1.57l2.82-2.82l0.46,0.46v16.24l-11.6,11.6
					c-0.48,0.48-0.48,1.25,0,1.72c0.48,0.48,1.25,0.48,1.72,0l11.96-11.96c0.23-0.23,0.36-0.54,0.36-0.86V11.39
					c0-0.32-0.13-0.63-0.36-0.86L61.4,9.71z M22.1,22.09c-0.67,0-1.22-0.55-1.22-1.22c0-0.67,0.55-1.22,1.22-1.22
					s1.22,0.55,1.22,1.22C23.32,21.54,22.78,22.09,22.1,22.09z M40.75,6.81c-0.32,0-0.63,0.13-0.86,0.36L25.73,21.33
					c0.02-0.15,0.03-0.31,0.03-0.46c0-2.01-1.64-3.65-3.65-3.65c-2.01,0-3.65,1.64-3.65,3.65s1.64,3.65,3.65,3.65
					c0.16,0,0.31-0.01,0.46-0.03l-4.9,4.9H4.62c-1.08,0-1.95-0.87-1.95-1.95V4.62c0-1.08,0.87-1.95,1.95-1.95h44.45l4.14,4.14
					L40.75,6.81z M53.57,17.04c-0.67,0-1.22-0.55-1.22-1.22c0-0.67,0.55-1.22,1.22-1.22c0.28,0,0.53,0.09,0.74,0.25
					c0.03,0.04,0.07,0.08,0.11,0.12c0.04,0.04,0.08,0.07,0.12,0.11c0.16,0.21,0.25,0.46,0.25,0.74
					C54.78,16.5,54.24,17.04,53.57,17.04z"/>
				<path id="XMLID_7_" class="st15" d="M40.73,36.26c0.32,0,0.63-0.13,0.86-0.36l2.75-2.75c0.48-0.48,0.48-1.25,0-1.72
					c-0.48-0.48-1.25-0.48-1.72,0l-1.89,1.89l-6.03-6.03c-0.48-0.48-1.25-0.48-1.72,0c-0.48,0.48-0.48,1.25,0,1.72l6.89,6.89
					C40.1,36.13,40.41,36.26,40.73,36.26L40.73,36.26z"/>
				<path id="XMLID_6_" class="st15" d="M50.2,25.57c-0.48-0.48-1.25-0.48-1.72,0l-1.55,1.55l-1.72-1.72l1.55-1.55
					c0.48-0.48,0.48-1.25,0-1.72c-0.48-0.48-1.25-0.48-1.72,0l-1.55,1.55l-1.72-1.72l1.55-1.55c0.48-0.48,0.48-1.25,0-1.72
					c-0.48-0.48-1.25-0.48-1.72,0l-2.41,2.41c-0.23,0.23-0.36,0.54-0.36,0.86c0,0.32,0.13,0.63,0.36,0.86l6.89,6.89
					c0.24,0.24,0.55,0.36,0.86,0.36s0.62-0.12,0.86-0.36l2.41-2.41C50.68,26.82,50.68,26.05,50.2,25.57L50.2,25.57z"/>
				<path id="XMLID_5_" class="st15" d="M36.74,39.57c0.6,0.31,1.33,0.07,1.64-0.53c0.31-0.6,0.07-1.33-0.53-1.64l-9.13-4.65
					c-0.47-0.24-1.04-0.15-1.41,0.22c-0.37,0.37-0.46,0.94-0.22,1.41l4.65,9.13c0.22,0.42,0.64,0.67,1.09,0.67
					c0.19,0,0.37-0.04,0.55-0.13c0.6-0.31,0.84-1.04,0.53-1.64l-0.37-0.73L36,39.2L36.74,39.57z M32.36,39.39l-1.41-2.77l2.77,1.41
					L32.36,39.39z"/>
				<path id="XMLID_4_" class="st15" d="M25.07,48.99c-0.48,0.48-0.48,1.25,0,1.72c0.24,0.24,0.55,0.36,0.86,0.36
					s0.62-0.12,0.86-0.36l1.72-1.72c1.42-1.42,1.42-3.74,0-5.17c-1.35-1.35-3.51-1.42-4.95-0.2c-0.04,0.03-0.09,0.07-0.13,0.11
					l-0.09,0.09c-0.23,0.23-0.54,0.36-0.86,0.36c-0.33,0-0.63-0.13-0.86-0.36c-0.47-0.47-0.47-1.25,0-1.72l1.72-1.72
					c0.48-0.48,0.48-1.25,0-1.72c-0.48-0.48-1.25-0.48-1.72,0l-1.72,1.72c-1.42,1.42-1.42,3.74,0,5.17
					c0.69,0.69,1.61,1.07,2.58,1.07c0.97,0,1.89-0.38,2.58-1.07c0,0,0,0,0,0c0.47-0.47,1.25-0.47,1.72,0
					c0.23,0.23,0.36,0.54,0.36,0.86c0,0.33-0.13,0.63-0.36,0.86L25.07,48.99z"/>
				<path id="XMLID_3_" class="st15" d="M21.1,8.1c-0.59-0.33-1.33-0.12-1.66,0.46l-7.85,13.91c-0.33,0.59-0.12,1.33,0.46,1.66
					c0.19,0.11,0.39,0.16,0.6,0.16c0.42,0,0.84-0.22,1.06-0.62l7.85-13.91C21.89,9.17,21.69,8.43,21.1,8.1z"/>
				<path id="XMLID_2_" class="st15" d="M15.48,11.2c0-2.01-1.64-3.65-3.65-3.65S8.17,9.18,8.17,11.2s1.64,3.65,3.65,3.65
					S15.48,13.21,15.48,11.2z M10.61,11.2c0-0.67,0.55-1.22,1.22-1.22c0.67,0,1.22,0.55,1.22,1.22c0,0.67-0.55,1.22-1.22,1.22
					C11.16,12.41,10.61,11.87,10.61,11.2z"/>
				<path id="XMLID_1_" class="st15" d="M45.53,43.26c-0.32,0-0.63,0.13-0.86,0.36c-0.23,0.23-0.36,0.54-0.36,0.86
					c0,0.32,0.13,0.63,0.36,0.86c0.23,0.23,0.54,0.36,0.86,0.36c0.32,0,0.63-0.13,0.86-0.36c0.23-0.23,0.36-0.54,0.36-0.86
					c0-0.32-0.13-0.63-0.36-0.86C46.16,43.39,45.85,43.26,45.53,43.26z"/>
			</g>
		</g>
		<g class="st28">
			<g class="st29">
				<g>
					<path class="st15" d="M50.78,10.47c-0.87,0-1.57,0.7-1.57,1.57s0.7,1.57,1.57,1.57c0.87,0,1.57-0.7,1.57-1.57
						S51.64,10.47,50.78,10.47z"/>
					<path class="st15" d="M55.18,0.31c-0.41-0.41-1.07-0.41-1.48,0l-8.38,8.38c-0.2,0.2-0.31,0.46-0.31,0.74v7.33
						c0,0.58,0.47,1.05,1.05,1.05h7.33c0.28,0,0.54-0.11,0.74-0.31l8.38-8.38c0.41-0.41,0.41-1.07,0-1.48L55.18,0.31z M52.96,15.7
						h-5.85V9.86l7.33-7.33l5.85,5.85L52.96,15.7z"/>
					<path class="st15" d="M1.05,35.6h3.14v0.13c0,1.88,1.31,3.52,3.14,3.94v9.54c0,0.58,0.47,1.05,1.05,1.05h6.28
						c0.58,0,1.05-0.47,1.05-1.05v-4.19h1.06c1.73,0,3.13-1.4,3.13-3.13v-2.22c1.34-0.31,2.42-1.28,2.89-2.58l17.63,7.83
						c0.53,0.23,1.15,0,1.38-0.53c0.06-0.13,0.09-0.28,0.09-0.43V18.84c0-0.58-0.47-1.05-1.05-1.05c-0.15,0-0.29,0.03-0.43,0.09
						l-17.63,7.83c-0.57-1.61-2.09-2.68-3.8-2.69H8.24c-2.24,0-4.05,1.82-4.05,4.05v0.13H1.05C0.47,27.22,0,27.69,0,28.27v6.28
						C0,35.13,0.47,35.6,1.05,35.6z M35.6,22.32l4.19-1.86v21.9L35.6,40.5V22.32z M23.03,27.9l10.47-4.65v16.33l-10.47-4.66V27.9z
						 M13.61,43.97v4.19H9.42v-8.38h4.19V43.97z M17.8,41.89c0,0.57-0.46,1.04-1.04,1.04H15.7v-3.14h2.09V41.89z M6.28,34.55v-7.46
						c0-1.08,0.88-1.96,1.96-1.96h10.74c1.08,0,1.96,0.88,1.96,1.96v8.64c0,1.08-0.88,1.96-1.96,1.96H8.24
						c-1.08,0-1.96-0.88-1.96-1.96V34.55z M2.09,29.31h2.09v4.19H2.09V29.31z"/>
					<path class="st15" d="M52.15,41.17c-0.41-0.41-1.07-0.41-1.48,0l-7.4,7.4c-0.41,0.41-0.41,1.07,0,1.48l10.36,10.36
						c0.41,0.41,1.07,0.41,1.48,0l7.4-7.4c0.41-0.41,0.41-1.07,0-1.48L52.15,41.17z M59.03,51.01l-5.91-0.45l-0.45-5.91L59.03,51.01
						z M54.37,58.19l-8.88-8.88l5.05-5.05l0.57,7.35c0.04,0.51,0.45,0.92,0.96,0.96l7.36,0.57L54.37,58.19z"/>
					<path class="st15" d="M28.27,19.89c4.04,0.01,7.32-3.26,7.33-7.3c0-1.59-0.51-3.14-1.47-4.41l6.4-6.4l-1.48-1.48l-6.4,6.39
						c-3.24-2.43-7.83-1.77-10.26,1.47S20.62,16,23.85,18.43C25.13,19.38,26.68,19.9,28.27,19.89z M28.27,7.33
						c2.89,0,5.23,2.34,5.23,5.23c0,2.89-2.34,5.23-5.23,5.23c-2.89,0-5.23-2.34-5.23-5.23C23.04,9.67,25.38,7.33,28.27,7.33z"/>
					<path class="st15" d="M45.02,36.64h5.23v1.05c0,0.58,0.47,1.05,1.05,1.05h8.38c0.58,0,1.05-0.47,1.05-1.05v-5.21
						c-0.01-1.78-1.13-3.36-2.81-3.95c1.88-1.34,2.32-3.96,0.98-5.84c-1.34-1.88-3.96-2.33-5.84-0.98
						c-1.88,1.34-2.33,3.96-0.98,5.84c0.27,0.38,0.6,0.71,0.98,0.98c-0.68,0.24-1.28,0.65-1.76,1.2c-0.36-0.42-0.81-0.76-1.31-1.01
						c1.41-1.01,1.73-2.98,0.71-4.38c-1.01-1.41-2.98-1.73-4.38-0.71c-1.41,1.01-1.73,2.98-0.71,4.38c0.2,0.27,0.44,0.51,0.71,0.71
						c-1.43,0.7-2.35,2.15-2.35,3.74v3.14C43.97,36.17,44.44,36.64,45.02,36.64z M55.49,23.03c1.16,0,2.09,0.94,2.09,2.09
						s-0.94,2.09-2.09,2.09c-1.16,0-2.09-0.94-2.09-2.09C53.39,23.97,54.33,23.03,55.49,23.03z M52.35,35.6v-3.12
						c0-1.17,0.95-2.11,2.11-2.11h2.05c1.17,0,2.11,0.95,2.11,2.11v4.17h-6.28V35.6z M48.16,25.13c0.58,0,1.05,0.47,1.05,1.05
						c0,0.58-0.47,1.05-1.05,1.05c-0.58,0-1.05-0.47-1.05-1.05C47.11,25.6,47.58,25.13,48.16,25.13z M46.07,32.45
						c0-1.16,0.94-2.09,2.09-2.09c1.16,0,2.09,0.94,2.09,2.09v2.09h-4.19V32.45z"/>
					<path class="st15" d="M29.31,42.92h-4.19c-0.28,0-0.54,0.11-0.74,0.31l-6.28,6.28c-0.41,0.41-0.41,1.07,0,1.48l11.52,11.52
						c0.41,0.41,1.07,0.41,1.48,0l8.38-8.38c0.41-0.41,0.41-1.07,0-1.48l-9.42-9.42C29.86,43.03,29.59,42.92,29.31,42.92z
						 M30.36,60.29L20.33,50.25l5.23-5.23h3.32l8.38,8.38L30.36,60.29z"/>
					<path class="st15" d="M24.39,51.61l4.19-4.19l1.48,1.48l-4.19,4.19L24.39,51.61z"/>
					<path class="st15" d="M27.53,54.75l4.19-4.19l1.48,1.48l-4.19,4.19L27.53,54.75z"/>
				</g>
			</g>
		</g>
		<g class="st28">
			<path class="st30" d="M53.37,57.24H9.45c-2.14,0-3.87-1.74-3.87-3.87V9.45c0-2.14,1.74-3.87,3.87-3.87h43.91
				c2.14,0,3.87,1.74,3.87,3.87v43.91C57.24,55.5,55.5,57.24,53.37,57.24z M9.45,7.3C8.26,7.3,7.3,8.26,7.3,9.45v43.91
				c0,1.19,0.97,2.15,2.15,2.15h43.91c1.19,0,2.15-0.97,2.15-2.15V9.45c0-1.19-0.97-2.15-2.15-2.15H9.45z"/>
			<path class="st30" d="M13.33,14.19H9.88c-0.48,0-0.86-0.38-0.86-0.86V9.88c0-0.48,0.39-0.86,0.86-0.86h3.44
				c0.48,0,0.86,0.38,0.86,0.86v3.44C14.19,13.8,13.8,14.19,13.33,14.19z M10.74,12.46h1.72v-1.72h-1.72V12.46z"/>
			<path class="st30" d="M20.21,14.19h-3.44c-0.48,0-0.86-0.38-0.86-0.86V9.88c0-0.48,0.39-0.86,0.86-0.86h3.44
				c0.48,0,0.86,0.38,0.86,0.86v3.44C21.08,13.8,20.69,14.19,20.21,14.19z M17.63,12.46h1.72v-1.72h-1.72V12.46z"/>
			<path class="st30" d="M27.1,14.19h-3.44c-0.48,0-0.86-0.38-0.86-0.86V9.88c0-0.48,0.39-0.86,0.86-0.86h3.44
				c0.48,0,0.86,0.38,0.86,0.86v3.44C27.96,13.8,27.58,14.19,27.1,14.19z M24.52,12.46h1.72v-1.72h-1.72V12.46z"/>
			<path class="st30" d="M56.38,17.63H6.44c-0.48,0-0.86-0.38-0.86-0.86V9.45c0-2.14,1.74-3.87,3.87-3.87h43.91
				c2.14,0,3.87,1.74,3.87,3.87v7.32C57.24,17.25,56.85,17.63,56.38,17.63z M7.3,15.91h48.22V9.45c0-1.19-0.97-2.15-2.15-2.15H9.45
				C8.26,7.3,7.3,8.26,7.3,9.45V15.91z"/>
			<path class="st30" d="M29.69,34.85H10.74c-0.48,0-0.86-0.38-0.86-0.86V21.94c0-0.48,0.39-0.86,0.86-0.86h18.94
				c0.48,0,0.86,0.38,0.86,0.86v12.06C30.55,34.47,30.16,34.85,29.69,34.85z M11.6,33.13h17.22V22.8H11.6V33.13z"/>
			<path class="st30" d="M47.77,27.1H33.99c-0.48,0-0.86-0.38-0.86-0.86s0.39-0.86,0.86-0.86h13.78c0.48,0,0.86,0.38,0.86,0.86
				S48.24,27.1,47.77,27.1z"/>
			<path class="st30" d="M52.07,23.66H33.99c-0.48,0-0.86-0.38-0.86-0.86c0-0.48,0.39-0.86,0.86-0.86h18.08
				c0.48,0,0.86,0.38,0.86,0.86C52.94,23.27,52.55,23.66,52.07,23.66z"/>
			<path class="st30" d="M42.6,34.85h-8.61c-0.48,0-0.86-0.38-0.86-0.86v-3.44c0-0.48,0.39-0.86,0.86-0.86h8.61
				c0.48,0,0.86,0.38,0.86,0.86v3.44C43.46,34.47,43.08,34.85,42.6,34.85z M34.85,33.13h6.89v-1.72h-6.89V33.13z"/>
			<path class="st30" d="M14.19,31.41c-0.22,0-0.44-0.08-0.61-0.25c-0.34-0.34-0.34-0.88,0-1.22l3.44-3.44
				c0.34-0.34,0.88-0.34,1.22,0c0.34,0.34,0.34,0.88,0,1.22l-3.44,3.44C14.63,31.32,14.41,31.41,14.19,31.41z"/>
			<path class="st30" d="M21.08,31.41c-0.22,0-0.44-0.08-0.61-0.25l-3.44-3.44c-0.34-0.34-0.34-0.88,0-1.22
				c0.34-0.34,0.88-0.34,1.22,0l3.44,3.44c0.34,0.34,0.34,0.88,0,1.22C21.52,31.32,21.3,31.41,21.08,31.41L21.08,31.41z"/>
			<path class="st30" d="M19.35,29.69c-0.22,0-0.44-0.08-0.61-0.25c-0.34-0.34-0.34-0.88,0-1.22l3.44-3.44
				c0.34-0.34,0.88-0.34,1.22,0c0.34,0.34,0.34,0.88,0,1.22l-3.44,3.44C19.79,29.6,19.57,29.69,19.35,29.69z"/>
			<path class="st30" d="M26.24,29.69c-0.22,0-0.44-0.08-0.61-0.25l-3.44-3.44c-0.34-0.34-0.34-0.88,0-1.22
				c0.34-0.34,0.88-0.34,1.22,0l3.44,3.44c0.34,0.34,0.34,0.88,0,1.22C26.68,29.6,26.46,29.69,26.24,29.69L26.24,29.69z"/>
			<path class="st30" d="M29.69,52.07H10.74c-0.48,0-0.86-0.38-0.86-0.86V39.16c0-0.48,0.39-0.86,0.86-0.86h18.94
				c0.48,0,0.86,0.38,0.86,0.86v12.06C30.55,51.69,30.16,52.07,29.69,52.07z M11.6,50.35h17.22V40.02H11.6V50.35z"/>
			<path class="st30" d="M47.77,44.32H33.99c-0.48,0-0.86-0.38-0.86-0.86c0-0.48,0.39-0.86,0.86-0.86h13.78
				c0.48,0,0.86,0.38,0.86,0.86C48.63,43.94,48.24,44.32,47.77,44.32z"/>
			<path class="st30" d="M52.07,40.88H33.99c-0.48,0-0.86-0.38-0.86-0.86c0-0.48,0.39-0.86,0.86-0.86h18.08
				c0.48,0,0.86,0.38,0.86,0.86C52.94,40.5,52.55,40.88,52.07,40.88z"/>
			<path class="st30" d="M42.6,52.07h-8.61c-0.48,0-0.86-0.38-0.86-0.86v-3.44c0-0.48,0.39-0.86,0.86-0.86h8.61
				c0.48,0,0.86,0.38,0.86,0.86v3.44C43.46,51.69,43.08,52.07,42.6,52.07z M34.85,50.35h6.89v-1.72h-6.89V50.35z"/>
			<path class="st30" d="M14.19,48.63c-0.22,0-0.44-0.08-0.61-0.25c-0.34-0.34-0.34-0.88,0-1.22l3.44-3.44
				c0.34-0.34,0.88-0.34,1.22,0c0.34,0.34,0.34,0.88,0,1.22l-3.44,3.44C14.63,48.55,14.41,48.63,14.19,48.63z"/>
			<path class="st30" d="M21.08,48.63c-0.22,0-0.44-0.08-0.61-0.25l-3.44-3.44c-0.34-0.34-0.34-0.88,0-1.22
				c0.34-0.34,0.88-0.34,1.22,0l3.44,3.44c0.34,0.34,0.34,0.88,0,1.22C21.52,48.55,21.3,48.63,21.08,48.63L21.08,48.63z"/>
			<path class="st30" d="M19.35,46.91c-0.22,0-0.44-0.08-0.61-0.25c-0.34-0.34-0.34-0.88,0-1.22l3.44-3.44
				c0.34-0.34,0.88-0.34,1.22,0c0.34,0.34,0.34,0.88,0,1.22l-3.44,3.44C19.79,46.82,19.57,46.91,19.35,46.91z"/>
			<path class="st30" d="M26.24,46.91c-0.22,0-0.44-0.08-0.61-0.25l-3.44-3.44c-0.34-0.34-0.34-0.88,0-1.22
				c0.34-0.34,0.88-0.34,1.22,0l3.44,3.44c0.34,0.34,0.34,0.88,0,1.22C26.68,46.82,26.46,46.91,26.24,46.91L26.24,46.91z"/>
		</g>
		<g>
			<g>
				<g>
					<g>
						<path class="st15" d="M61.6,18.6c-0.19-0.24-0.48-0.37-0.79-0.37H13.16c-0.56,0-1.01,0.45-1.01,1.01v24.33
							c0,0.56,0.45,1.01,1.01,1.01h42.58c0.48,0,0.89-0.34,0.99-0.81l5.07-24.33C61.86,19.15,61.79,18.84,61.6,18.6z M54.92,42.56
							H14.17v-22.3h45.39L54.92,42.56z"/>
					</g>
				</g>
				<g>
					<g>
						<path class="st15" d="M13.16,10.12h-3.04c-0.56,0-1.01,0.45-1.01,1.01c0,0.56,0.45,1.01,1.01,1.01h2.03v7.1
							c0,0.56,0.45,1.01,1.01,1.01s1.01-0.45,1.01-1.01v-8.11C14.17,10.57,13.72,10.12,13.16,10.12z"/>
					</g>
				</g>
				<g>
					<g>
						<path class="st15" d="M23.3,51.68c-2.8,0-5.07,2.27-5.07,5.07c0,2.8,2.27,5.07,5.07,5.07c2.8,0,5.07-2.27,5.07-5.07
							C28.37,53.96,26.09,51.68,23.3,51.68z M23.3,59.79c-1.68,0-3.04-1.36-3.04-3.04s1.36-3.04,3.04-3.04s3.04,1.36,3.04,3.04
							S24.97,59.79,23.3,59.79z"/>
					</g>
				</g>
				<g>
					<g>
						<path class="st15" d="M47.63,51.68c-2.8,0-5.07,2.27-5.07,5.07c0,2.8,2.27,5.07,5.07,5.07c2.8,0,5.07-2.27,5.07-5.07
							C52.7,53.96,50.42,51.68,47.63,51.68z M47.63,59.79c-1.68,0-3.04-1.36-3.04-3.04s1.36-3.04,3.04-3.04s3.04,1.36,3.04,3.04
							S49.31,59.79,47.63,59.79z"/>
					</g>
				</g>
				<g>
					<g>
						<path class="st15" d="M54.73,51.68H22.28c-4.47,0-8.11-3.64-8.11-8.11c0-0.56-0.45-1.01-1.01-1.01s-1.01,0.45-1.01,1.01
							c0,5.59,4.55,10.14,10.14,10.14h32.44c0.56,0,1.01-0.45,1.01-1.01C55.74,52.14,55.29,51.68,54.73,51.68z"/>
					</g>
				</g>
				<g>
					<g>
						<path class="st15" d="M8.09,8.09H4.04c-1.68,0-3.04,1.36-3.04,3.04s1.36,3.04,3.04,3.04h4.06c1.68,0,3.04-1.36,3.04-3.04
							S9.77,8.09,8.09,8.09z M8.09,12.15H4.04c-0.56,0-1.01-0.45-1.01-1.01s0.46-1.01,1.01-1.01h4.06c0.56,0,1.01,0.45,1.01,1.01
							C9.1,11.69,8.65,12.15,8.09,12.15z"/>
					</g>
				</g>
				<g>
					<g>
						<path class="st15" d="M57.79,36.85c-0.19-0.24-0.48-0.37-0.79-0.37H13.16c-0.56,0-1.01,0.45-1.01,1.01v6.08
							c0,0.56,0.45,1.01,1.01,1.01h42.58c0.48,0,0.89-0.34,0.99-0.81L58,37.7C58.06,37.4,57.99,37.09,57.79,36.85z M54.92,42.56
							H14.17V38.5h41.59L54.92,42.56z"/>
					</g>
				</g>
				<g>
					<g>
						<path class="st15" d="M59.06,30.77c-0.19-0.24-0.48-0.37-0.79-0.37H13.16c-0.56,0-1.01,0.45-1.01,1.01v6.08
							c0,0.56,0.45,1.01,1.01,1.01h43.85c0.48,0,0.89-0.34,0.99-0.81l1.27-6.08C59.33,31.32,59.25,31,59.06,30.77z M56.18,36.48
							H14.17v-4.06h42.85L56.18,36.48z"/>
					</g>
				</g>
				<g>
					<g>
						<path class="st15" d="M60.33,24.69c-0.19-0.24-0.48-0.37-0.79-0.37H13.16c-0.56,0-1.01,0.45-1.01,1.01v6.08
							c0,0.56,0.45,1.01,1.01,1.01h45.11c0.48,0,0.89-0.34,0.99-0.81l1.27-6.08C60.6,25.23,60.52,24.92,60.33,24.69z M57.45,30.39
							H14.17v-4.06h44.12L57.45,30.39z"/>
					</g>
				</g>
				<g>
					<g>
						<path class="st15" d="M61.6,18.6c-0.19-0.24-0.48-0.37-0.79-0.37H13.16c-0.56,0-1.01,0.45-1.01,1.01v6.08
							c0,0.56,0.45,1.01,1.01,1.01h46.38c0.48,0,0.89-0.34,0.99-0.81l1.27-6.08C61.86,19.15,61.79,18.84,61.6,18.6z M58.72,24.31
							H14.17v-4.06h45.39L58.72,24.31z"/>
					</g>
				</g>
				<g>
					<g>
						<path class="st15" d="M47.63,7.08H27.35c-0.56,0-1.01,0.45-1.01,1.01v11.15c0,0.56,0.45,1.01,1.01,1.01h20.28
							c0.56,0,1.01-0.45,1.01-1.01V8.09C48.64,7.53,48.19,7.08,47.63,7.08z M46.62,18.23H28.37V9.1h18.25V18.23z"/>
					</g>
				</g>
				<g>
					<g>
						<path class="st15" d="M40.53,7.08h-6.08c-0.56,0-1.01,0.45-1.01,1.01v7.1c0,0.37,0.21,0.72,0.54,0.89
							c0.33,0.18,0.73,0.16,1.04-0.05l2.48-1.65l2.48,1.65c0.17,0.11,0.37,0.17,0.56,0.17c0.16,0,0.33-0.04,0.48-0.12
							c0.33-0.18,0.54-0.52,0.54-0.89v-7.1C41.55,7.53,41.09,7.08,40.53,7.08z M39.52,13.29l-1.47-0.98
							c-0.17-0.11-0.37-0.17-0.56-0.17s-0.39,0.06-0.56,0.17l-1.47,0.98V9.1h4.06L39.52,13.29L39.52,13.29z"/>
					</g>
				</g>
				<g>
					<g>
						<path class="st15" d="M58.78,11.13H47.63c-0.56,0-1.01,0.45-1.01,1.01v7.1c0,0.56,0.45,1.01,1.01,1.01h11.15
							c0.56,0,1.01-0.45,1.01-1.01v-7.1C59.79,11.58,59.34,11.13,58.78,11.13z M57.77,18.23h-9.12v-5.07h9.12V18.23z"/>
					</g>
				</g>
				<g>
					<g>
						<path class="st15" d="M27.35,11.13H17.21c-0.56,0-1.01,0.45-1.01,1.01v7.1c0,0.56,0.45,1.01,1.01,1.01h10.14
							c0.56,0,1.01-0.45,1.01-1.01v-7.1C28.37,11.58,27.91,11.13,27.35,11.13z M26.34,18.23h-8.11v-5.07h8.11V18.23z"/>
					</g>
				</g>
				<g>
					<g>
						<path class="st15" d="M38.5,0.99H22.28c-0.56,0-1.01,0.45-1.01,1.01v10.14c0,0.56,0.45,1.01,1.01,1.01h5.07
							c0.56,0,1.01-0.45,1.01-1.01s-0.45-1.01-1.01-1.01H23.3V3.02h14.19v5.07c0,0.56,0.45,1.01,1.01,1.01
							c0.56,0,1.01-0.45,1.01-1.01V2.01C39.52,1.45,39.06,0.99,38.5,0.99z"/>
					</g>
				</g>
			</g>
		</g>
		<g class="st28">
			<g class="st29">
				<g>
					<g>
						<path class="st15" d="M10.27,1.22c-3.33,0-6.04,2.71-6.04,6.04s2.71,6.04,6.04,6.04s6.04-2.71,6.04-6.04S13.6,1.22,10.27,1.22
							z M10.27,11.28c-2.22,0-4.03-1.81-4.03-4.03s1.81-4.03,4.03-4.03s4.03,1.81,4.03,4.03S12.49,11.28,10.27,11.28z"/>
					</g>
				</g>
				<g>
					<g>
						<path class="st15" d="M14.3,9.27h-0.03c-0.32,0-0.61,0.15-0.8,0.4c-0.77,1.03-1.94,1.61-3.2,1.61c-1.26,0-2.43-0.59-3.2-1.61
							c-0.19-0.25-0.51-0.4-0.83-0.4c-2.77,0-5.03,2.26-5.03,5.03v4.03c0,0.56,0.45,1.01,1.01,1.01h16.1c0.56,0,1.01-0.45,1.01-1.01
							V14.3C19.33,11.52,17.07,9.27,14.3,9.27z M17.32,17.32H3.23V14.3c0-1.51,1.12-2.77,2.6-2.99c1.15,1.27,2.74,1.98,4.45,1.98
							c1.71,0,3.31-0.72,4.45-1.98c1.46,0.21,2.59,1.47,2.59,2.99V17.32z"/>
					</g>
				</g>
				<g>
					<g>
						<path class="st15" d="M52.54,1.22c-3.33,0-6.04,2.71-6.04,6.04s2.71,6.04,6.04,6.04s6.04-2.71,6.04-6.04
							S55.87,1.22,52.54,1.22z M52.54,11.28c-2.22,0-4.03-1.81-4.03-4.03s1.81-4.03,4.03-4.03c2.22,0,4.03,1.81,4.03,4.03
							S54.76,11.28,52.54,11.28z"/>
					</g>
				</g>
				<g>
					<g>
						<path class="st15" d="M56.57,9.27h-0.03c-0.32,0-0.61,0.15-0.8,0.4c-0.77,1.03-1.94,1.61-3.2,1.61c-1.26,0-2.43-0.59-3.2-1.61
							c-0.19-0.25-0.51-0.4-0.83-0.4c-2.77,0-5.03,2.26-5.03,5.03v4.03c0,0.56,0.45,1.01,1.01,1.01h16.1c0.56,0,1.01-0.45,1.01-1.01
							V14.3C61.6,11.52,59.34,9.27,56.57,9.27z M59.59,17.32H45.5V14.3c0-1.51,1.12-2.77,2.6-2.99c1.15,1.27,2.74,1.98,4.45,1.98
							c1.71,0,3.31-0.72,4.45-1.98c1.46,0.21,2.59,1.47,2.59,2.99V17.32z"/>
					</g>
				</g>
				<g>
					<g>
						<path class="st15" d="M10.27,43.49c-3.33,0-6.04,2.71-6.04,6.04c0,3.33,2.71,6.04,6.04,6.04s6.04-2.71,6.04-6.04
							C16.31,46.19,13.6,43.49,10.27,43.49z M10.27,53.55c-2.22,0-4.03-1.81-4.03-4.03c0-2.22,1.81-4.03,4.03-4.03
							s4.03,1.81,4.03,4.03C14.3,51.74,12.49,53.55,10.27,53.55z"/>
					</g>
				</g>
				<g>
					<g>
						<path class="st15" d="M14.3,51.54h-0.03c-0.32,0-0.61,0.15-0.8,0.4c-0.77,1.03-1.94,1.61-3.2,1.61c-1.26,0-2.43-0.59-3.2-1.61
							c-0.19-0.25-0.51-0.4-0.83-0.4c-2.77,0-5.03,2.26-5.03,5.03v4.03c0,0.56,0.45,1.01,1.01,1.01h16.1c0.56,0,1.01-0.45,1.01-1.01
							v-4.03C19.33,53.79,17.07,51.54,14.3,51.54z M17.32,59.59H3.23v-3.02c0-1.51,1.12-2.77,2.6-2.99
							c1.15,1.27,2.74,1.98,4.45,1.98c1.71,0,3.31-0.72,4.45-1.98c1.46,0.21,2.59,1.47,2.59,2.99V59.59z"/>
					</g>
				</g>
				<g>
					<g>
						<path class="st15" d="M52.54,43.49c-3.33,0-6.04,2.71-6.04,6.04c0,3.33,2.71,6.04,6.04,6.04s6.04-2.71,6.04-6.04
							C58.58,46.19,55.87,43.49,52.54,43.49z M52.54,53.55c-2.22,0-4.03-1.81-4.03-4.03c0-2.22,1.81-4.03,4.03-4.03
							c2.22,0,4.03,1.81,4.03,4.03C56.57,51.74,54.76,53.55,52.54,53.55z"/>
					</g>
				</g>
				<g>
					<g>
						<path class="st15" d="M56.57,51.54h-0.03c-0.32,0-0.61,0.15-0.8,0.4c-0.77,1.03-1.94,1.61-3.2,1.61
							c-1.26,0-2.43-0.59-3.2-1.61c-0.19-0.25-0.51-0.4-0.83-0.4c-2.77,0-5.03,2.26-5.03,5.03v4.03c0,0.56,0.45,1.01,1.01,1.01h16.1
							c0.56,0,1.01-0.45,1.01-1.01v-4.03C61.6,53.79,59.34,51.54,56.57,51.54z M59.59,59.59H45.5v-3.02c0-1.51,1.12-2.77,2.6-2.99
							c1.15,1.27,2.74,1.98,4.45,1.98c1.71,0,3.31-0.72,4.45-1.98c1.46,0.21,2.59,1.47,2.59,2.99V59.59z"/>
					</g>
				</g>
				<g>
					<g>
						<path class="st15" d="M48.09,6.24c-0.87-0.57-1.77-1.11-2.69-1.59c-0.49-0.26-1.1-0.07-1.36,0.42
							c-0.26,0.49-0.07,1.1,0.42,1.36c0.86,0.45,1.7,0.95,2.51,1.48c0.17,0.11,0.36,0.17,0.56,0.17c0.33,0,0.65-0.16,0.84-0.45
							C48.67,7.17,48.55,6.55,48.09,6.24z"/>
					</g>
				</g>
				<g>
					<g>
						<g>
							<path class="st15" d="M40.02,2.46c-1.85-0.55-3.77-0.92-5.7-1.11c-0.55-0.05-1.05,0.35-1.1,0.91
								c-0.05,0.55,0.35,1.04,0.91,1.1c1.8,0.17,3.59,0.52,5.32,1.03c0.1,0.03,0.19,0.04,0.29,0.04c0.43,0,0.83-0.28,0.97-0.72
								C40.86,3.18,40.55,2.62,40.02,2.46z"/>
							<path class="st15" d="M28.51,1.35c-1.93,0.18-3.85,0.56-5.7,1.11c-0.53,0.16-0.84,0.72-0.68,1.25
								c0.13,0.44,0.53,0.72,0.96,0.72c0.09,0,0.19-0.01,0.29-0.04c1.73-0.51,3.52-0.86,5.32-1.03c0.55-0.05,0.96-0.54,0.91-1.1
								S29.06,1.3,28.51,1.35z"/>
						</g>
					</g>
				</g>
				<g>
					<g>
						<path class="st15" d="M18.78,5.07c-0.26-0.49-0.87-0.68-1.36-0.42c-0.92,0.48-1.82,1.02-2.69,1.59
							c-0.46,0.31-0.59,0.93-0.28,1.39c0.19,0.29,0.51,0.45,0.84,0.45c0.19,0,0.38-0.05,0.56-0.17c0.81-0.54,1.65-1.04,2.51-1.48
							C18.84,6.18,19.03,5.57,18.78,5.07z"/>
					</g>
				</g>
				<g>
					<g>
						<path class="st15" d="M58.3,42.82c-0.5-0.24-1.1-0.02-1.34,0.49c-0.41,0.88-0.87,1.74-1.37,2.57
							c-0.28,0.48-0.13,1.09,0.35,1.38c0.16,0.1,0.34,0.14,0.52,0.14c0.34,0,0.68-0.18,0.86-0.49c0.53-0.89,1.03-1.82,1.47-2.76
							C59.02,43.65,58.8,43.05,58.3,42.82z"/>
					</g>
				</g>
				<g>
					<g>
						<path class="st15" d="M61.46,28.53c-0.05-0.55-0.54-0.95-1.1-0.91c-0.55,0.05-0.96,0.54-0.91,1.1
							c0.09,0.89,0.13,1.79,0.13,2.69c0,1.6-0.14,3.21-0.4,4.77c-0.09,0.55,0.28,1.07,0.82,1.16c0.06,0.01,0.11,0.01,0.17,0.01
							c0.48,0,0.91-0.35,0.99-0.84c0.29-1.68,0.43-3.4,0.43-5.11C61.6,30.45,61.55,29.48,61.46,28.53z"/>
					</g>
				</g>
				<g>
					<g>
						<path class="st15" d="M59.65,20.73c-0.37-0.97-0.79-1.93-1.26-2.86c-0.25-0.5-0.86-0.7-1.35-0.45
							c-0.5,0.25-0.7,0.85-0.45,1.35c0.44,0.87,0.83,1.76,1.17,2.67c0.15,0.4,0.53,0.65,0.94,0.65c0.12,0,0.24-0.02,0.36-0.07
							C59.59,21.83,59.85,21.25,59.65,20.73z"/>
					</g>
				</g>
				<g>
					<g>
						<path class="st15" d="M5.77,17.43c-0.5-0.25-1.1-0.05-1.35,0.45c-0.47,0.93-0.89,1.89-1.26,2.86c-0.2,0.52,0.06,1.1,0.58,1.3
							c0.12,0.04,0.24,0.07,0.36,0.07c0.41,0,0.79-0.25,0.94-0.65c0.34-0.9,0.74-1.8,1.17-2.67C6.47,18.28,6.27,17.68,5.77,17.43z"
							/>
					</g>
				</g>
				<g>
					<g>
						<path class="st15" d="M3.63,36.17c-0.27-1.56-0.4-3.17-0.4-4.76c0-0.9,0.04-1.81,0.13-2.69c0.05-0.55-0.35-1.04-0.91-1.1
							c-0.55-0.05-1.04,0.35-1.1,0.91c-0.09,0.95-0.14,1.92-0.14,2.89c0,1.71,0.14,3.43,0.43,5.1c0.08,0.49,0.51,0.84,0.99,0.84
							c0.06,0,0.11,0,0.17-0.01C3.35,37.24,3.72,36.72,3.63,36.17z"/>
					</g>
				</g>
				<g>
					<g>
						<path class="st15" d="M7.22,45.88c-0.5-0.83-0.96-1.7-1.37-2.57c-0.24-0.5-0.83-0.72-1.34-0.49c-0.5,0.24-0.72,0.83-0.49,1.34
							c0.44,0.94,0.93,1.87,1.47,2.76c0.19,0.32,0.52,0.49,0.86,0.49c0.18,0,0.35-0.05,0.51-0.14C7.35,46.97,7.51,46.35,7.22,45.88z
							"/>
					</g>
				</g>
				<g>
					<g>
						<path class="st15" d="M45.5,27.38H27.38c-1.11,0-2.01,0.9-2.01,2.01v12.07c0,1.11,0.9,2.01,2.02,2.01h9.64l5.74,5.74
							c0.19,0.19,0.45,0.29,0.71,0.29c0.13,0,0.26-0.03,0.39-0.08c0.38-0.16,0.62-0.52,0.62-0.93v-5.03h1c1.11,0,2.01-0.9,2.01-2.02
							V29.4C47.51,28.29,46.61,27.38,45.5,27.38z M45.5,41.47h-2.01c-0.56,0-1.01,0.45-1.01,1.01v3.61l-4.32-4.32
							c-0.19-0.19-0.44-0.29-0.71-0.29l-10.06,0V29.4l0,0l18.11,0L45.5,41.47z"/>
					</g>
				</g>
				<g>
					<g>
						<path class="st15" d="M34.42,21.34H16.31c-1.11,0-2.01,0.9-2.01,2.01v12.07c0,1.11,0.9,2.01,2.01,2.01h1v5.03
							c0,0.41,0.25,0.77,0.62,0.93c0.12,0.05,0.25,0.08,0.38,0.08c0.26,0,0.52-0.1,0.71-0.29l5.74-5.74h1.6
							c0.56,0,1.01-0.45,1.01-1.01V29.4l8.05,0c0.56,0,1.01-0.45,1.01-1.01v-5.03C36.44,22.25,35.54,21.34,34.42,21.34z
							 M34.43,27.38h-7.04c-1.11,0-2.01,0.9-2.01,2.01v6.04h-1.01c-0.27,0-0.52,0.11-0.71,0.29l-4.32,4.32v-3.61
							c0-0.56-0.45-1.01-1.01-1.01l-2.01,0l0-12.08l18.11,0V27.38z"/>
					</g>
				</g>
				<g>
					<g>
						<path class="st15" d="M36.44,32.41H30.4c-0.56,0-1.01,0.45-1.01,1.01s0.45,1.01,1.01,1.01h6.04c0.56,0,1.01-0.45,1.01-1.01
							C37.45,32.87,37,32.41,36.44,32.41z"/>
					</g>
				</g>
				<g>
					<g>
						<path class="st15" d="M42.48,32.41h-2.01c-0.56,0-1.01,0.45-1.01,1.01s0.45,1.01,1.01,1.01h2.01c0.56,0,1.01-0.45,1.01-1.01
							C43.49,32.87,43.03,32.41,42.48,32.41z"/>
					</g>
				</g>
				<g>
					<g>
						<path class="st15" d="M42.48,36.44h-6.04c-0.56,0-1.01,0.45-1.01,1.01s0.45,1.01,1.01,1.01h6.04c0.56,0,1.01-0.45,1.01-1.01
							S43.03,36.44,42.48,36.44z"/>
					</g>
				</g>
				<g>
					<g>
						<path class="st15" d="M32.41,36.44H30.4c-0.56,0-1.01,0.45-1.01,1.01s0.45,1.01,1.01,1.01h2.01c0.56,0,1.01-0.45,1.01-1.01
							S32.97,36.44,32.41,36.44z"/>
					</g>
				</g>
				<g>
					<g>
						<path class="st15" d="M21.44,57.77c-0.9-0.34-1.8-0.74-2.67-1.17c-0.5-0.25-1.1-0.05-1.35,0.45c-0.25,0.5-0.05,1.1,0.45,1.35
							c0.93,0.47,1.89,0.89,2.86,1.26c0.12,0.04,0.24,0.07,0.36,0.07c0.41,0,0.79-0.25,0.94-0.65
							C22.23,58.55,21.96,57.97,21.44,57.77z"/>
					</g>
				</g>
				<g>
					<g>
						<path class="st15" d="M35.91,60.27c-0.07-0.55-0.56-0.95-1.12-0.88c-2.23,0.27-4.53,0.27-6.77,0
							c-0.55-0.07-1.05,0.33-1.12,0.88c-0.07,0.55,0.33,1.05,0.88,1.12c1.2,0.14,2.42,0.22,3.63,0.22c1.21,0,2.43-0.07,3.62-0.21
							C35.58,61.32,35.97,60.82,35.91,60.27z"/>
					</g>
				</g>
				<g>
					<g>
						<path class="st15" d="M45.39,57.04c-0.25-0.5-0.86-0.7-1.35-0.45c-0.87,0.44-1.77,0.83-2.67,1.17
							c-0.52,0.2-0.78,0.78-0.58,1.3c0.15,0.4,0.54,0.65,0.94,0.65c0.12,0,0.24-0.02,0.36-0.07c0.97-0.37,1.93-0.79,2.86-1.26
							C45.44,58.15,45.64,57.54,45.39,57.04z"/>
					</g>
				</g>
			</g>
		</g>
		<g class="st28">
			<g class="st29">
				<path class="st15" d="M62.04,26.8L51.7,13.37c-0.38-0.5-1.08-0.62-1.61-0.28l-6.67,4.24h-8.7c-0.11,0-0.22,0.02-0.33,0.06
					l-6.75,1.94l-7-1.92l-6.8-4.33c-0.52-0.33-1.21-0.22-1.59,0.26L0.8,27.51c-0.41,0.51-0.34,1.25,0.15,1.68l5.99,5.16l5.38,7.25
					c-1.57,1.68-1.54,4.32,0.09,5.95c0.73,0.72,1.65,1.13,2.6,1.23c-0.03,0.21-0.05,0.43-0.05,0.65c0,1.14,0.45,2.22,1.25,3.03
					c0.81,0.81,1.88,1.25,3.03,1.25c0.02,0,0.03,0,0.05,0c0,0.03,0,0.06,0,0.09c0,1.14,0.45,2.22,1.25,3.03
					c0.81,0.81,1.88,1.25,3.03,1.25c0.23,0,0.45-0.02,0.67-0.05c0.09,0.95,0.5,1.88,1.23,2.61c0.83,0.83,1.93,1.25,3.03,1.25
					c1.1,0,2.19-0.42,3.03-1.25l0.65-0.65l0.27,0.22c0.83,0.8,1.9,1.2,2.98,1.2c1.1,0,2.19-0.42,3.03-1.25
					c0.85-0.85,1.27-1.98,1.25-3.09c1.12,0.02,2.24-0.4,3.09-1.25c0.85-0.85,1.27-1.97,1.25-3.09c1.16,0.02,2.27-0.43,3.09-1.25
					c0.85-0.85,1.27-1.98,1.25-3.09c1.12,0.02,2.24-0.4,3.09-1.25c1.45-1.45,1.64-3.7,0.56-5.36l3.93-8.22l5.9-5.08
					C62.36,28.03,62.43,27.31,62.04,26.8z M13.43,15.71l4.89,3.11L7.68,31.79l-4.27-3.67L13.43,15.71z M14.13,43.2l1.48-1.48
					c0.04-0.04,0.09-0.09,0.14-0.13c0.29-0.24,0.64-0.38,1.01-0.41c0.01,0,0.02,0,0.03,0c0.05,0,0.11-0.01,0.16-0.01
					c0.51,0.01,0.98,0.21,1.33,0.58c0.68,0.72,0.65,1.91-0.08,2.63l-1.43,1.43c-0.72,0.72-1.9,0.72-2.63,0
					C13.4,45.11,13.4,43.93,14.13,43.2z M17.92,50.74c-0.35-0.35-0.54-0.82-0.54-1.31s0.19-0.96,0.54-1.31l2.86-2.86
					c0.55-0.55,1.41-0.7,2.11-0.36c0.72,0.34,1.13,1.13,1.02,1.92c-0.06,0.42-0.25,0.82-0.55,1.12l-2.82,2.82
					c-0.35,0.35-0.82,0.54-1.31,0.54C18.74,51.28,18.28,51.09,17.92,50.74z M22.25,55.11c-0.35-0.35-0.54-0.82-0.54-1.31
					c0-0.5,0.19-0.96,0.54-1.31l2.86-2.86c0.59-0.59,1.53-0.71,2.25-0.29c0.66,0.38,1,1.13,0.89,1.88c-0.06,0.41-0.26,0.8-0.55,1.09
					l-2.82,2.82c-0.35,0.35-0.82,0.54-1.31,0.54C23.07,55.65,22.6,55.46,22.25,55.11z M27.17,58.91c-0.72-0.72-0.72-1.9,0-2.63
					l1.48-1.48c0.04-0.04,0.09-0.09,0.14-0.13c0,0,0,0,0,0c0.24-0.2,0.52-0.33,0.82-0.38c0.01,0,0.01,0,0.02,0
					c0.05-0.01,0.1-0.02,0.16-0.02c0.02,0,0.04,0,0.06,0c0.04,0,0.09-0.01,0.13,0c0.51,0.01,0.98,0.21,1.33,0.58
					c0.04,0.05,0.08,0.09,0.12,0.14c0.56,0.73,0.48,1.81-0.21,2.5l-1.42,1.42C29.08,59.64,27.9,59.64,27.17,58.91z M49.76,45.4
					c-0.72,0.72-1.9,0.72-2.63,0c-0.03-0.03-0.05-0.05-0.08-0.07l-7.79-7.87c-0.47-0.48-1.24-0.48-1.71-0.01
					c-0.48,0.47-0.48,1.24-0.01,1.71l7.87,7.95c0,0,0,0,0,0c0.72,0.72,0.72,1.9,0,2.63c-0.35,0.35-0.82,0.54-1.31,0.54
					c-0.5,0-0.96-0.19-1.31-0.54l-5.27-5.32c-0.47-0.48-1.24-0.48-1.71-0.01c-0.48,0.47-0.48,1.24-0.01,1.71l5.19,5.24
					c0.03,0.03,0.05,0.06,0.08,0.09c0.72,0.72,0.72,1.9,0,2.63c-0.72,0.72-1.9,0.72-2.63,0l-2.87-2.9
					c-0.47-0.48-1.24-0.48-1.71-0.01c-0.48,0.47-0.48,1.24-0.01,1.71l2.79,2.82c0.03,0.03,0.05,0.07,0.09,0.1
					c0.72,0.72,0.72,1.9,0,2.63c-0.72,0.72-1.9,0.72-2.63,0c-0.08-0.08-0.18-0.15-0.27-0.22c-0.08-0.06-0.1-0.1-0.06-0.2
					c0.04-0.1,0.1-0.19,0.14-0.28c0.04-0.11,0.08-0.22,0.11-0.34c0.19-0.6,0.24-1.24,0.16-1.86c-0.16-1.19-0.82-2.27-1.81-2.95
					c-0.54-0.37-1.16-0.61-1.8-0.7c0.31-1.38-0.06-2.87-1.04-3.9c-0.8-0.85-1.89-1.32-3.05-1.34c-0.04,0-0.08,0-0.13,0
					c0.03-1.11-0.38-2.22-1.15-3.03c-0.8-0.85-1.89-1.32-3.05-1.34c-0.35,0-0.7,0.03-1.03,0.11c-0.14-1-0.65-1.93-1.42-2.6
					c-0.76-0.66-1.72-1.02-2.74-1.04c-1.07-0.02-2.13,0.38-2.92,1.1l-4.68-6.31l11.2-13.64l3.57,0.98l-4.66,8.23
					c-0.56,0.99-0.71,2.15-0.4,3.25c0.3,1.1,1.02,2.02,2.01,2.58c0.06,0.04,0.12,0.07,0.19,0.1c0,0,0.01,0,0.01,0.01
					c0.17,0.08,0.34,0.16,0.51,0.22c0.81,0.28,1.69,0.31,2.53,0.08c1.1-0.3,2.02-1.02,2.58-2.01l3.03-5.35l5.41,0.38l14.4,14.4
					C50.49,43.5,50.49,44.67,49.76,45.4z M50.27,39.85L36.75,26.34c-0.03-0.03-0.05-0.05-0.08-0.07c-0.19-0.16-0.44-0.26-0.69-0.28
					l-6.62-0.47c-0.46-0.03-0.91,0.21-1.14,0.61l-3.41,6.01c-0.24,0.43-0.64,0.74-1.12,0.87c-0.48,0.13-0.98,0.07-1.41-0.17
					c-0.43-0.24-0.74-0.64-0.87-1.12c-0.13-0.48-0.07-0.98,0.17-1.41l4.55-8.02l1.84-0.53c0.01,0,0.02-0.01,0.04-0.01l6.88-1.99
					h8.31l10.37,13.19L50.27,39.85z M55.15,31.04l-9.59-12.2l4.9-3.11l8.96,11.64L55.15,31.04z"/>
				<path class="st15" d="M37.94,15.06c0.31,0,0.62-0.12,0.86-0.35l8.27-8.27c0.47-0.47,0.47-1.24,0-1.71s-1.24-0.47-1.71,0
					l-8.27,8.27c-0.47,0.47-0.47,1.24,0,1.71C37.32,14.94,37.63,15.06,37.94,15.06z"/>
				<path class="st15" d="M24.02,14.7c0.24,0.24,0.55,0.35,0.86,0.35c0.31,0,0.62-0.12,0.86-0.35c0.47-0.47,0.47-1.24,0-1.71
					l-8.27-8.27c-0.47-0.47-1.24-0.47-1.71,0s-0.47,1.24,0,1.71L24.02,14.7z"/>
				<path class="st15" d="M31.41,15.06c0.67,0,1.21-0.54,1.21-1.21V7c0-0.67-0.54-1.21-1.21-1.21S30.2,6.33,30.2,7v6.85
					C30.2,14.51,30.74,15.06,31.41,15.06z"/>
				<path class="st15" d="M30.29,2.61c0.19,0.47,0.67,0.77,1.18,0.75c0.5-0.03,0.94-0.36,1.09-0.84c0.16-0.48-0.01-1.03-0.42-1.33
					c-0.41-0.31-0.98-0.33-1.41-0.05C30.26,1.46,30.07,2.08,30.29,2.61z"/>
			</g>
		</g>
		<g class="st28">
			<g class="st29">
				<path class="st27" d="M23.38,25.39c-2.77,0-5.02,2.25-5.02,5.02s2.25,5.02,5.02,5.02c0.55,0,1-0.45,1-1s-0.45-1-1-1
					c-1.66,0-3.01-1.35-3.01-3.01c0-1.66,1.35-3.01,3.01-3.01c1.66,0,3.01,1.35,3.01,3.01c0,0.56,0.45,1,1,1c0.55,0,1-0.45,1-1
					C28.4,27.64,26.15,25.39,23.38,25.39"/>
				<path class="st27" d="M28.4,21.37c-2.77,0-5.02,2.25-5.02,5.02c0,0.56,0.45,1,1,1c0.55,0,1-0.45,1-1c0-1.66,1.35-3.01,3.01-3.01
					c1.66,0,3.01,1.35,3.01,3.01c0,0.56,0.45,1,1,1c0.55,0,1-0.45,1-1C33.42,23.62,31.16,21.37,28.4,21.37"/>
				<path class="st27" d="M35.42,18.36c-2.77,0-5.02,2.25-5.02,5.02c0,0.56,0.45,1,1,1c0.55,0,1-0.45,1-1
					c0-1.66,1.35-3.01,3.01-3.01c1.66,0,3.01,1.35,3.01,3.01c0,0.56,0.45,1,1,1c0.55,0,1-0.45,1-1
					C40.44,20.61,38.19,18.36,35.42,18.36"/>
				<path class="st27" d="M39.44,23.38c-2.77,0-5.02,2.25-5.02,5.02c0,0.56,0.45,1,1,1c0.55,0,1-0.45,1-1
					c0-1.66,1.35-3.01,3.01-3.01c1.66,0,3.01,1.35,3.01,3.01c0,0.56,0.45,1,1,1c0.55,0,1-0.45,1-1
					C44.45,25.63,42.2,23.38,39.44,23.38"/>
				<path class="st27" d="M48.47,51.48H14.35c-0.55,0-1,0.45-1,1v4.75c0,2.36,1.92,4.28,4.28,4.28h27.57c2.36,0,4.28-1.92,4.28-4.28
					v-4.75C49.47,51.93,49.02,51.48,48.47,51.48 M47.47,57.23c0,1.25-1.02,2.27-2.27,2.27H17.63c-1.25,0-2.27-1.02-2.27-2.27v-3.75
					h32.11V57.23z"/>
				<path class="st27" d="M34.42,55.49H28.4c-0.55,0-1,0.45-1,1s0.45,1,1,1h6.02c0.55,0,1-0.45,1-1S34.97,55.49,34.42,55.49"/>
				<path class="st27" d="M43.45,55.49h-4.01c-0.55,0-1,0.45-1,1s0.45,1,1,1h4.01c0.55,0,1-0.45,1-1S44.01,55.49,43.45,55.49"/>
				<path class="st27" d="M23.38,55.49h-4.01c-0.55,0-1,0.45-1,1s0.45,1,1,1h4.01c0.55,0,1-0.45,1-1S23.93,55.49,23.38,55.49"/>
				<path class="st27" d="M45.19,1.3H17.63c-2.36,0-4.28,1.92-4.28,4.28v4.75c0,0.55,0.45,1,1,1h34.12c0.55,0,1-0.45,1-1V5.58
					C49.47,3.22,47.55,1.3,45.19,1.3 M47.47,9.33H15.35V5.58c0-1.25,1.02-2.27,2.27-2.27h27.57c1.26,0,2.27,1.02,2.27,2.27V9.33z"/>
				<path class="st27" d="M36.43,5.32H26.39c-0.55,0-1,0.45-1,1c0,0.55,0.45,1,1,1h10.04c0.55,0,1-0.45,1-1
					C37.43,5.76,36.98,5.32,36.43,5.32"/>
				<path class="st27" d="M48.47,9.33H14.35c-0.55,0-1,0.45-1,1v42.15c0,0.55,0.45,1,1,1h34.12c0.55,0,1-0.45,1-1V10.33
					C49.47,9.78,49.02,9.33,48.47,9.33 M47.47,51.48H15.35V11.34h32.11V51.48z"/>
				<path class="st27" d="M54.45,24.1c-0.16-0.53-0.71-0.84-1.24-0.68c-0.53,0.15-0.84,0.71-0.68,1.24
					c0.63,2.18,0.96,4.45,0.96,6.74c0,2.3-0.33,4.58-0.96,6.77c-0.15,0.53,0.15,1.09,0.68,1.24c0.09,0.03,0.19,0.04,0.28,0.04
					c0.43,0,0.83-0.28,0.96-0.72c0.69-2.37,1.04-4.84,1.04-7.33C55.49,28.93,55.14,26.47,54.45,24.1"/>
				<path class="st27" d="M10.3,38.17c-0.64-2.19-0.96-4.46-0.96-6.77c0-2.29,0.32-4.56,0.96-6.75c0.15-0.53-0.15-1.09-0.68-1.24
					c-0.53-0.15-1.09,0.15-1.24,0.68c-0.69,2.36-1.04,4.82-1.04,7.3c0,2.49,0.35,4.96,1.04,7.33c0.13,0.44,0.53,0.72,0.96,0.72
					c0.09,0,0.19-0.01,0.28-0.04C10.15,39.26,10.46,38.71,10.3,38.17"/>
				<path class="st27" d="M3.31,31.41c0-4.08,0.68-7.86,1.92-10.63c0.23-0.51,0-1.1-0.51-1.33c-0.51-0.23-1.1,0-1.33,0.51
					C2.04,22.98,1.3,27.05,1.3,31.41c0,4.36,0.74,8.43,2.09,11.45c0.17,0.37,0.53,0.59,0.92,0.59c0.14,0,0.28-0.03,0.41-0.09
					c0.51-0.23,0.73-0.82,0.51-1.33C3.99,39.27,3.31,35.49,3.31,31.41"/>
				<path class="st27" d="M59.42,19.96c-0.23-0.51-0.82-0.73-1.33-0.51c-0.51,0.23-0.73,0.82-0.51,1.33
					c1.24,2.77,1.92,6.55,1.92,10.63c0,4.08-0.68,7.86-1.92,10.63c-0.23,0.51,0,1.1,0.51,1.33c0.13,0.06,0.27,0.09,0.41,0.09
					c0.38,0,0.75-0.22,0.92-0.59c1.35-3.02,2.09-7.09,2.09-11.45C61.51,27.05,60.77,22.98,59.42,19.96"/>
				<path class="st27" d="M40.44,42.45H22.38c-0.55,0-1,0.45-1,1s0.45,1,1,1h18.06c0.55,0,1-0.45,1-1S40.99,42.45,40.44,42.45"/>
				<path class="st27" d="M44.45,38.43H18.36c-0.55,0-1,0.45-1,1v8.03c0,0.55,0.45,1,1,1h26.09c0.55,0,1-0.45,1-1v-8.03
					C45.46,38.88,45.01,38.43,44.45,38.43 M43.45,46.46H19.37v-6.02h24.08V46.46z"/>
			</g>
		</g>
		<g class="st28">
			<g class="st29">
				<path class="st15" d="M30.51,55.58h2.01v2.01h-2.01V55.58z"/>
				<path class="st15" d="M47.81,49.24l1.42-1.42l1.42,1.42l-1.42,1.42L47.81,49.24z"/>
				<path class="st15" d="M55.58,30.51h2.01v2.01h-2.01V30.51z"/>
				<path class="st15" d="M60.6,24.49h-7.11c-0.39-1.22-0.88-2.41-1.47-3.55l5.03-5.03c0.39-0.39,0.39-1.03,0-1.42l-4.26-4.26
					C41.15-1.63,22.1-1.81,10.23,9.83S-1.81,40.52,9.83,52.38c0.13,0.14,0.27,0.27,0.4,0.4l4.26,4.26c0.39,0.39,1.03,0.39,1.42,0
					l5.03-5.03c1.14,0.59,2.33,1.08,3.56,1.47v7.11c0,0.55,0.45,1,1,1h12.04c0.55,0,1-0.45,1-1v-7.11c1.22-0.39,2.41-0.88,3.55-1.47
					l5.03,5.03c0.39,0.39,1.03,0.39,1.42,0l8.51-8.51c0.39-0.39,0.39-1.03,0-1.42l-5.03-5.03c0.59-1.14,1.08-2.33,1.47-3.56h7.11
					c0.55,0,1-0.45,1-1V25.49C61.6,24.94,61.15,24.49,60.6,24.49L60.6,24.49z M11.65,11.65c10.69-10.69,27.93-11,38.99-0.69
					l-1.42,1.42C38.64,2.6,22.14,3.27,12.37,13.85c-9.22,9.99-9.22,25.38,0,35.37l-1.42,1.42C0.65,39.58,0.95,22.34,11.65,11.65z
					 M40.02,23c4.66,4.74,4.6,12.36-0.14,17.02c-4.68,4.61-12.2,4.61-16.88,0c-0.39-0.39-1.03-0.39-1.42,0l-7.79,7.79
					c-9-9.78-8.37-25.01,1.41-34.02c9.21-8.48,23.39-8.48,32.61,0l-7.79,7.79C39.63,21.97,39.63,22.6,40.02,23
					C40.02,23,40.02,23,40.02,23L40.02,23z M59.59,36.52h-6.86c-0.45,0-0.85,0.3-0.97,0.73c-0.44,1.57-1.07,3.09-1.87,4.51
					c-0.22,0.39-0.15,0.89,0.17,1.2l4.84,4.84l-7.09,7.09l-4.84-4.84c-0.32-0.32-0.81-0.39-1.2-0.17c-1.43,0.8-2.94,1.43-4.51,1.87
					c-0.43,0.12-0.73,0.52-0.73,0.97v6.86H26.49v-6.86c0-0.45-0.3-0.85-0.73-0.97c-1.57-0.44-3.09-1.07-4.51-1.87
					c-0.39-0.22-0.89-0.15-1.2,0.17l-4.84,4.84l-2.84-2.84l9.96-9.95c5.86,5.08,14.73,4.44,19.81-1.43c4.57-5.28,4.57-13.11,0-18.38
					l9.95-9.96l2.84,2.84l-4.84,4.84c-0.32,0.32-0.39,0.81-0.17,1.2c0.8,1.42,1.43,2.94,1.87,4.51c0.12,0.43,0.52,0.73,0.97,0.73
					h6.86V36.52z"/>
				<path class="st15" d="M32.51,27.64V16.46c0-0.55-0.45-1-1-1s-1,0.45-1,1v11.18c-1.4,0.37-2.5,1.46-2.87,2.87h-7.16
					c-0.55,0-1,0.45-1,1s0.45,1,1,1h7.16c0.55,2.14,2.73,3.43,4.87,2.88s3.43-2.73,2.88-4.87C35.03,29.11,33.93,28,32.51,27.64z
					 M31.51,33.51c-1.11,0-2.01-0.9-2.01-2.01c0-1.11,0.9-2.01,2.01-2.01c1.11,0,2.01,0.9,2.01,2.01
					C33.52,32.62,32.62,33.51,31.51,33.51z"/>
				<path class="st15" d="M31.51,12.45c-0.55,0-1-0.45-1-1V9.44c0-0.55,0.45-1,1-1s1,0.45,1,1v2.01
					C32.51,12,32.06,12.45,31.51,12.45z"/>
				<path class="st15" d="M41.54,15.14c-0.55,0-1-0.45-1-1c0-0.18,0.05-0.35,0.13-0.5l1-1.74c0.28-0.48,0.89-0.64,1.37-0.36
					c0.47,0.28,0.64,0.88,0.36,1.36l-1,1.74C42.23,14.95,41.9,15.14,41.54,15.14L41.54,15.14z"/>
				<path class="st15" d="M21.48,15.14c-0.36,0-0.69-0.19-0.87-0.5l-1-1.74c-0.27-0.48-0.11-1.09,0.38-1.37
					c0.48-0.27,1.08-0.11,1.36,0.36l1,1.74c0.28,0.48,0.11,1.09-0.37,1.37C21.83,15.09,21.65,15.14,21.48,15.14z"/>
				<path class="st15" d="M14.13,22.48c-0.18,0-0.35-0.05-0.5-0.13l-1.74-1c-0.48-0.28-0.64-0.89-0.36-1.37
					c0.28-0.47,0.88-0.64,1.36-0.36l1.74,1c0.48,0.28,0.64,0.89,0.37,1.37C14.82,22.29,14.49,22.48,14.13,22.48L14.13,22.48z"/>
				<path class="st15" d="M11.45,32.51H9.44c-0.55,0-1-0.45-1-1s0.45-1,1-1h2.01c0.55,0,1,0.45,1,1S12,32.51,11.45,32.51z"/>
				<path class="st15" d="M12.4,43.55c-0.55,0-1-0.45-1-1c0-0.36,0.19-0.69,0.5-0.87l1.74-1c0.48-0.28,1.09-0.12,1.37,0.36
					c0.28,0.48,0.12,1.09-0.36,1.37c0,0-0.01,0-0.01,0.01l-1.74,1C12.75,43.5,12.57,43.55,12.4,43.55L12.4,43.55z"/>
				<path class="st15" d="M31.51,41.54c-2.66,0.01-5.22-1.05-7.09-2.94c-0.4-0.39-0.41-1.02-0.02-1.42c0.39-0.4,1.02-0.41,1.42-0.02
					c0.01,0.01,0.02,0.02,0.02,0.02c3.1,3.16,8.18,3.22,11.34,0.12c3.16-3.1,3.22-8.18,0.12-11.34c-0.04-0.04-0.08-0.08-0.12-0.12
					c-0.4-0.38-0.41-1.02-0.03-1.42c0.38-0.4,1.02-0.41,1.42-0.03c0.01,0.01,0.02,0.02,0.02,0.02c3.92,3.92,3.91,10.27-0.01,14.19
					C36.71,40.48,34.17,41.54,31.51,41.54L31.51,41.54z"/>
			</g>
		</g>
	</g>
</g>
<g id="Home">
</g>
<g id="Acceso" class="st28">
</g>
<g id="Footer">
</g>
<g id="Whatsapp">
</g>
<g id="Nav">
</g>
<g id="Guias">
</g>
</svg>
